<svg width="50" height="58" viewBox="0 0 50 58" fill="none" xmlns="http://www.w3.org/2000/svg">
<g id="id-card-identity-svgrepo-com 1" clip-path="url(#clip0_2131_64)">
<g id="Group">
<g id="Group_2">
<g id="Group_3">
<path id="Vector" d="M22.9048 34.6685C22.9557 34.7149 23.0101 34.7587 23.0695 34.7974C24.7974 35.6421 26.5256 36.043 28.3392 36.0849C28.4455 36.0876 28.552 36.0891 28.659 36.0891C28.7659 36.0891 28.8724 36.0877 28.9788 36.0849C30.7924 36.043 32.5205 35.6421 34.2485 34.7974C34.308 34.7587 34.3622 34.7149 34.4132 34.6685C38.2391 32.6509 40.8541 28.693 40.8541 24.1668C40.8541 17.6096 35.3663 12.2446 28.659 12.2446C21.9517 12.2446 16.4639 17.6096 16.4639 24.1668C16.4639 28.6931 19.079 32.6509 22.9048 34.6685ZM26.6264 20.1928C26.6264 19.0999 27.5411 18.2057 28.659 18.2057C29.7769 18.2057 30.6915 19.0999 30.6915 20.1928C30.6915 21.2857 29.7769 22.1798 28.659 22.1798C27.5411 22.1798 26.6264 21.2857 26.6264 20.1928ZM28.659 24.1668C30.8947 24.1668 32.724 25.9551 32.724 28.1408V33.2651C31.4772 33.8016 30.1025 34.1019 28.659 34.1019C27.2153 34.1019 25.8407 33.8016 24.594 33.2651V28.1408C24.594 25.9551 26.4233 24.1668 28.659 24.1668ZM28.659 14.2317C34.2484 14.2317 38.8216 18.7025 38.8216 24.1668C38.8216 27.3992 37.2208 30.2833 34.7566 32.1006V28.1408C34.7566 25.9038 33.4786 23.9451 31.6017 22.9258C32.2957 22.2121 32.724 21.2491 32.724 20.1927C32.724 18.007 30.8947 16.2186 28.659 16.2186C26.4233 16.2186 24.594 18.007 24.594 20.1927C24.594 21.2492 25.0222 22.2121 25.7163 22.9258C23.8394 23.945 22.5614 25.9038 22.5614 28.1408V32.1006C20.0972 30.2833 18.4964 27.3992 18.4964 24.1668C18.4964 18.7025 23.0696 14.2317 28.659 14.2317Z" fill="white"/>
<path id="Vector_2" d="M21.7232 39.311C21.1287 39.311 20.7324 39.6977 20.7324 40.2777C20.7324 40.8577 21.1287 41.2444 21.7232 41.2444H27.6684C28.2629 41.2444 28.6593 40.8577 28.6593 40.2777C28.6593 39.6977 28.2629 39.311 27.6684 39.311H21.7232Z" fill="white"/>
<path id="Vector_3" d="M14.5126 41.2444H17.8053C18.4639 41.2444 18.9028 40.8577 18.9028 40.2777C18.9028 39.6977 18.4639 39.311 17.8053 39.311H14.5126C13.854 39.311 13.415 39.6977 13.415 40.2777C13.415 40.8577 13.854 41.2444 14.5126 41.2444Z" fill="white"/>
<path id="Vector_4" d="M31.5335 39.311C30.9064 39.311 30.4883 39.6977 30.4883 40.2777C30.4883 40.8577 30.9064 41.2444 31.5335 41.2444H36.7601C37.3873 41.2444 37.8054 40.8577 37.8054 40.2777C37.8054 39.6977 37.3873 39.311 36.7601 39.311H31.5335Z" fill="white"/>
<path id="Vector_5" d="M42.836 39.311H40.7018C40.0616 39.311 39.6348 39.6977 39.6348 40.2777C39.6348 40.8577 40.0616 41.2444 40.7018 41.2444H42.836C43.4763 41.2444 43.9031 40.8577 43.9031 40.2777C43.9031 39.6977 43.4763 39.311 42.836 39.311Z" fill="white"/>
<path id="Vector_6" d="M14.4516 47.0447H22.7443C23.3663 47.0447 23.7809 46.658 23.7809 46.078C23.7809 45.498 23.3663 45.1113 22.7443 45.1113H14.4516C13.8296 45.1113 13.415 45.498 13.415 46.078C13.415 46.658 13.8296 47.0447 14.4516 47.0447Z" fill="white"/>
<path id="Vector_7" d="M42.887 45.1113H38.8219C38.2121 45.1113 37.8057 45.498 37.8057 46.078C37.8057 46.658 38.2121 47.0447 38.8219 47.0447H42.887C43.4968 47.0447 43.9032 46.658 43.9032 46.078C43.9032 45.498 43.4968 45.1113 42.887 45.1113Z" fill="white"/>
<path id="Vector_8" d="M35.9762 46.078C35.9762 45.498 35.5616 45.1113 34.9397 45.1113H26.6469C26.0249 45.1113 25.6104 45.498 25.6104 46.078C25.6104 46.658 26.0249 47.0447 26.6469 47.0447H34.9397C35.5616 47.0447 35.9762 46.658 35.9762 46.078Z" fill="white"/>
<path id="Vector_9" d="M24.5939 50.9111H14.4313C13.8215 50.9111 13.415 51.2978 13.415 51.8778C13.415 52.4578 13.8215 52.8445 14.4313 52.8445H24.5939C25.2037 52.8445 25.6102 52.4578 25.6102 51.8778C25.6102 51.2978 25.2037 50.9111 24.5939 50.9111Z" fill="white"/>
<path id="Vector_10" d="M31.8297 50.9111H28.537C27.8784 50.9111 27.4395 51.2978 27.4395 51.8778C27.4395 52.4578 27.8784 52.8445 28.537 52.8445H31.8297C32.4883 52.8445 32.9273 52.4578 32.9273 51.8778C32.9273 51.2978 32.4883 50.9111 31.8297 50.9111Z" fill="white"/>
<path id="Vector_11" d="M42.8869 50.9111H35.7731C35.1633 50.9111 34.7568 51.2978 34.7568 51.8778C34.7568 52.4578 35.1633 52.8445 35.7731 52.8445H42.8869C43.4967 52.8445 43.9032 52.4578 43.9032 51.8778C43.9032 51.2978 43.4967 50.9111 42.8869 50.9111Z" fill="white"/>
<path id="Vector_12" d="M46.9515 5.8H32.7238V3.86663C32.7238 1.74 30.8946 0 28.6588 0C26.4231 0 24.5938 1.74 24.5938 3.86663V5.8H10.3662C8.63848 5.8 7.31738 7.05663 7.31738 8.7V55.1C7.31738 56.7434 8.63848 58 10.3662 58H46.9515C48.6792 58 50.0003 56.7434 50.0003 55.1V8.7C50.0003 7.05663 48.6792 5.8 46.9515 5.8ZM26.6263 6.76663V4.83337H30.6913V6.76674V8.7H26.6263V6.76663ZM28.7604 1.93337C29.4718 1.93337 30.1832 2.32 30.4881 2.9H26.9312C27.236 2.32 28.0491 1.93337 28.7604 1.93337ZM47.9677 55.1C47.9677 55.68 47.5613 56.0666 46.9515 56.0666H10.3662C9.75641 56.0666 9.34994 55.68 9.34994 55.1V8.7C9.34994 8.12 9.75641 7.73337 10.3662 7.73337H24.5938V9.66674C24.5938 10.2467 25.0003 10.6334 25.6101 10.6334H31.7076C32.3174 10.6334 32.7238 10.2467 32.7238 9.66674V7.73337H46.9515C47.5613 7.73337 47.9677 8.12 47.9677 8.7V55.1Z" fill="white"/>
</g>
</g>
</g>
</g>
<defs>
<clipPath id="clip0_2131_64">
<rect width="50" height="58" fill="white"/>
</clipPath>
</defs>
</svg>
