<svg width="58" height="61" viewBox="0 0 58 61" fill="none" xmlns="http://www.w3.org/2000/svg">
<g id="id-card-svgrepo-com 1" clip-path="url(#clip0_2131_85)">
<g id="Group">
<path id="Vector" d="M53.9236 8.1333H4.07643C1.82893 8.1333 0 10.0568 0 12.4206V13.2166V23.3833V48.5793C0 50.9431 1.82893 52.8666 4.07643 52.8666H53.9236C56.1711 52.8666 58 50.9431 58 48.5793V23.3833V13.2166V12.4206C58 10.0568 56.1711 8.1333 53.9236 8.1333ZM2.9 16.2666C3.4336 16.2666 3.86667 15.8112 3.86667 15.25H7.73333C7.73333 15.8112 8.1664 16.2666 8.7 16.2666C9.2336 16.2666 9.66667 15.8112 9.66667 15.25H13.5333C13.5333 15.8112 13.9664 16.2666 14.5 16.2666C15.0336 16.2666 15.4667 15.8112 15.4667 15.25H19.3333C19.3333 15.8112 19.7664 16.2666 20.3 16.2666C20.8336 16.2666 21.2667 15.8112 21.2667 15.25H25.1333C25.1333 15.8112 25.5664 16.2666 26.1 16.2666C26.6336 16.2666 27.0667 15.8112 27.0667 15.25H30.9333C30.9333 15.8112 31.3664 16.2666 31.9 16.2666C32.4336 16.2666 32.8667 15.8112 32.8667 15.25H36.7333C36.7333 15.8112 37.1664 16.2666 37.7 16.2666C38.2336 16.2666 38.6667 15.8112 38.6667 15.25H42.5333C42.5333 15.8112 42.9664 16.2666 43.5 16.2666C44.0336 16.2666 44.4667 15.8112 44.4667 15.25H48.3333C48.3333 15.8112 48.7664 16.2666 49.3 16.2666C49.8336 16.2666 50.2667 15.8112 50.2667 15.25H54.1333C54.1333 15.8112 54.5664 16.2666 55.1 16.2666C55.6336 16.2666 56.0667 15.8112 56.0667 15.25V21.35C56.0667 20.7888 55.6336 20.3333 55.1 20.3333C54.5664 20.3333 54.1333 20.7888 54.1333 21.35H50.2667C50.2667 20.7888 49.8336 20.3333 49.3 20.3333C48.7664 20.3333 48.3333 20.7888 48.3333 21.35H44.4667C44.4667 20.7888 44.0336 20.3333 43.5 20.3333C42.9664 20.3333 42.5333 20.7888 42.5333 21.35H38.6667C38.6667 20.7888 38.2336 20.3333 37.7 20.3333C37.1664 20.3333 36.7333 20.7888 36.7333 21.35H32.8667C32.8667 20.7888 32.4336 20.3333 31.9 20.3333C31.3664 20.3333 30.9333 20.7888 30.9333 21.35H27.0667C27.0667 20.7888 26.6336 20.3333 26.1 20.3333C25.5664 20.3333 25.1333 20.7888 25.1333 21.35H21.2667C21.2667 20.7888 20.8336 20.3333 20.3 20.3333C19.7664 20.3333 19.3333 20.7888 19.3333 21.35H15.4667C15.4667 20.7888 15.0336 20.3333 14.5 20.3333C13.9664 20.3333 13.5333 20.7888 13.5333 21.35H9.66667C9.66667 20.7888 9.2336 20.3333 8.7 20.3333C8.1664 20.3333 7.73333 20.7888 7.73333 21.35H3.86667C3.86667 20.7888 3.4336 20.3333 2.9 20.3333C2.3664 20.3333 1.93333 20.7888 1.93333 21.35V15.25C1.93333 15.8112 2.3664 16.2666 2.9 16.2666ZM56.0667 48.5793C56.0667 49.8227 55.1058 50.8333 53.9236 50.8333H4.07643C2.8942 50.8333 1.93333 49.8227 1.93333 48.5793V23.3833H56.0667V48.5793ZM1.93333 13.2166V12.4206C1.93333 11.1772 2.8942 10.1666 4.07643 10.1666H53.9236C55.1058 10.1666 56.0667 11.1772 56.0667 12.4206V13.2166H1.93333Z" fill="white"/>
<path id="Vector_2" d="M48.9611 47.7832H53.1671V25.4165H31.9004V47.7832H36.1064H48.9611ZM37.7004 45.7498V45.7448C37.7004 45.3025 37.9295 44.8969 38.262 44.7057L40.7541 43.4146C41.2558 43.1523 41.5671 42.6246 41.5671 42.037V40.5913L40.9832 40.3259C40.1026 39.9274 39.5274 39.1557 39.2248 37.9662L39.0866 37.4244L38.5781 37.2576C38.466 37.221 38.3461 37.1061 38.3461 36.9394V36.2613C38.3461 36.1179 38.438 36.0153 38.524 35.9675L38.9783 35.7133L39.0325 35.1745C39.0924 34.5696 39.2181 34.0155 39.4104 33.5265C39.4936 33.3119 39.5641 33.1523 39.6221 33.0222C39.772 32.6836 39.8628 32.4335 39.8957 32.1529C40.6023 32.463 41.4027 32.5881 42.2544 32.5159C42.3462 32.5078 42.44 32.5037 42.5357 32.5037C45.3574 32.5037 45.889 33.8599 46.0369 35.1857L46.0969 35.7164L46.5464 35.9665C46.6324 36.0142 46.7252 36.1159 46.7252 36.2613V36.9394C46.7252 37.1061 46.6053 37.221 46.4932 37.2576L45.9847 37.4244L45.8465 37.9662C45.5439 39.1557 44.9688 39.9284 44.0881 40.3259L43.5004 40.5913V42.0431C43.5004 42.6226 43.8049 43.1482 44.2969 43.4125L46.7329 44.72C47.1099 44.9182 47.3497 45.3106 47.3661 45.7509L37.7004 45.7498ZM33.8337 27.4498H51.2337V45.7498H49.2975C49.2801 44.5359 48.6353 43.4481 47.602 42.9022L45.5546 41.8031C46.4961 41.1698 47.1747 40.2161 47.5788 38.9555C48.2409 38.5325 48.6566 37.7782 48.6566 36.9384V36.2603C48.6566 35.572 48.3714 34.9305 47.89 34.4862C47.5449 32.5566 46.2999 30.4693 42.5347 30.4693C42.3868 30.4693 42.2408 30.4754 42.0997 30.4876C41.5922 30.5293 40.8566 30.4876 40.2273 30.0423C39.9324 29.8349 39.7845 29.6753 39.7091 29.5737C39.4008 29.1639 38.8865 29.0236 38.4293 29.2209C37.972 29.4191 37.7043 29.901 37.7603 30.4165C37.7884 30.6778 37.8309 30.9828 37.8947 31.3172C37.9759 31.7453 37.9817 31.8673 37.9778 31.8998C37.9691 31.9354 37.914 32.0614 37.8696 32.1631C37.8019 32.3156 37.7188 32.5037 37.6211 32.7548C37.4104 33.2916 37.2586 33.8772 37.1658 34.5035C36.6922 34.9478 36.4138 35.5832 36.4138 36.2613V36.9394C36.4138 37.7792 36.8304 38.5335 37.4916 38.9565C37.8947 40.2121 38.5694 41.1637 39.5052 41.796L37.3737 42.9011C36.3819 43.4705 35.7671 44.5593 35.7671 45.7448V45.7498H33.8337V27.4498Z" fill="white"/>
<path id="Vector_3" d="M5.79967 29.4835H14.4997C15.0342 29.4835 15.4663 29.0291 15.4663 28.4669C15.4663 27.9046 15.0342 27.4502 14.4997 27.4502H5.79967C5.26511 27.4502 4.83301 27.9046 4.83301 28.4669C4.83301 29.0291 5.26511 29.4835 5.79967 29.4835Z" fill="white"/>
<path id="Vector_4" d="M18.3671 29.4835H27.0671C27.6016 29.4835 28.0337 29.0291 28.0337 28.4669C28.0337 27.9046 27.6016 27.4502 27.0671 27.4502H18.3671C17.8325 27.4502 17.4004 27.9046 17.4004 28.4669C17.4004 29.0291 17.8325 29.4835 18.3671 29.4835Z" fill="white"/>
<path id="Vector_5" d="M5.79967 34.5665H6.76634C7.30091 34.5665 7.73301 34.1121 7.73301 33.5499C7.73301 32.9877 7.30091 32.5332 6.76634 32.5332H5.79967C5.26511 32.5332 4.83301 32.9877 4.83301 33.5499C4.83301 34.1121 5.26511 34.5665 5.79967 34.5665Z" fill="white"/>
<path id="Vector_6" d="M12.567 34.5665C13.1016 34.5665 13.5337 34.1121 13.5337 33.5499C13.5337 32.9877 13.1016 32.5332 12.567 32.5332H10.6337C10.0991 32.5332 9.66699 32.9877 9.66699 33.5499C9.66699 34.1121 10.0991 34.5665 10.6337 34.5665H12.567Z" fill="white"/>
<path id="Vector_7" d="M16.4335 34.5665H17.4001C17.9347 34.5665 18.3668 34.1121 18.3668 33.5499C18.3668 32.9877 17.9347 32.5332 17.4001 32.5332H16.4335C15.8989 32.5332 15.4668 32.9877 15.4668 33.5499C15.4668 34.1121 15.8989 34.5665 16.4335 34.5665Z" fill="white"/>
<path id="Vector_8" d="M23.1998 34.5665C23.7344 34.5665 24.1665 34.1121 24.1665 33.5499C24.1665 32.9877 23.7344 32.5332 23.1998 32.5332H21.2665C20.7319 32.5332 20.2998 32.9877 20.2998 33.5499C20.2998 34.1121 20.7319 34.5665 21.2665 34.5665H23.1998Z" fill="white"/>
<path id="Vector_9" d="M26.3799 32.828C26.205 33.0202 26.0996 33.2743 26.0996 33.5499C26.0996 33.8244 26.205 34.0785 26.3799 34.2717C26.5626 34.4547 26.8149 34.5665 27.0663 34.5665C27.3176 34.5665 27.5689 34.4547 27.7526 34.2717C27.9266 34.0785 28.0329 33.8142 28.0329 33.5499C28.0329 33.2855 27.9266 33.0202 27.7526 32.828C27.3949 32.4519 26.7376 32.4519 26.3799 32.828Z" fill="white"/>
<path id="Vector_10" d="M11.2624 38.0235C9.14537 39.1825 8.43197 41.3999 8.1729 43.6985C7.7727 43.3458 7.37251 42.994 6.97327 42.6412C6.02594 41.8065 4.65134 43.237 5.60641 44.0788C6.51024 44.8748 7.41504 45.6719 8.31887 46.469C8.95494 47.0302 9.93997 46.6753 9.96897 45.7502C10.0395 43.5481 10.1381 40.9291 12.2387 39.7793C13.3426 39.1754 12.3663 37.4196 11.2624 38.0235Z" fill="white"/>
<path id="Vector_11" d="M24.0757 41.045C22.6663 40.9514 20.6034 43.2359 19.5169 41.2005C19.2655 40.7288 18.6343 40.5519 18.1945 40.8355C16.8257 41.719 15.0364 42.9899 13.597 41.3439C12.7531 40.3791 11.3882 41.8197 12.2301 42.7814C14.0378 44.8483 16.3636 44.219 18.4158 43.0488C18.8779 43.5927 19.4511 43.9903 20.1916 44.1478C20.9582 44.3105 24.0824 42.9878 24.2516 43.2318C24.9785 44.278 26.6567 43.2644 25.921 42.205C25.4213 41.4872 24.9602 41.1029 24.0757 41.045Z" fill="white"/>
<path id="Vector_12" d="M40.6005 19.3165C41.1343 19.3165 41.5671 18.8614 41.5671 18.2999C41.5671 17.7384 41.1343 17.2832 40.6005 17.2832C40.0666 17.2832 39.6338 17.7384 39.6338 18.2999C39.6338 18.8614 40.0666 19.3165 40.6005 19.3165Z" fill="white"/>
<path id="Vector_13" d="M46.4003 19.3165C46.9341 19.3165 47.3669 18.8614 47.3669 18.2999C47.3669 17.7384 46.9341 17.2832 46.4003 17.2832C45.8664 17.2832 45.4336 17.7384 45.4336 18.2999C45.4336 18.8614 45.8664 19.3165 46.4003 19.3165Z" fill="white"/>
<path id="Vector_14" d="M23.2001 19.3165C23.7339 19.3165 24.1667 18.8614 24.1667 18.2999C24.1667 17.7384 23.7339 17.2832 23.2001 17.2832C22.6662 17.2832 22.2334 17.7384 22.2334 18.2999C22.2334 18.8614 22.6662 19.3165 23.2001 19.3165Z" fill="white"/>
<path id="Vector_15" d="M28.9999 19.3165C29.5337 19.3165 29.9665 18.8614 29.9665 18.2999C29.9665 17.7384 29.5337 17.2832 28.9999 17.2832C28.466 17.2832 28.0332 17.7384 28.0332 18.2999C28.0332 18.8614 28.466 19.3165 28.9999 19.3165Z" fill="white"/>
<path id="Vector_16" d="M34.7997 19.3165C35.3335 19.3165 35.7663 18.8614 35.7663 18.2999C35.7663 17.7384 35.3335 17.2832 34.7997 17.2832C34.2658 17.2832 33.833 17.7384 33.833 18.2999C33.833 18.8614 34.2658 19.3165 34.7997 19.3165Z" fill="white"/>
<path id="Vector_17" d="M52.2001 19.3165C52.7339 19.3165 53.1667 18.8614 53.1667 18.2999C53.1667 17.7384 52.7339 17.2832 52.2001 17.2832C51.6662 17.2832 51.2334 17.7384 51.2334 18.2999C51.2334 18.8614 51.6662 19.3165 52.2001 19.3165Z" fill="white"/>
<path id="Vector_18" d="M17.4003 19.3165C17.9341 19.3165 18.3669 18.8614 18.3669 18.2999C18.3669 17.7384 17.9341 17.2832 17.4003 17.2832C16.8664 17.2832 16.4336 17.7384 16.4336 18.2999C16.4336 18.8614 16.8664 19.3165 17.4003 19.3165Z" fill="white"/>
<path id="Vector_19" d="M5.79967 19.3165C6.33355 19.3165 6.76634 18.8614 6.76634 18.2999C6.76634 17.7384 6.33355 17.2832 5.79967 17.2832C5.2658 17.2832 4.83301 17.7384 4.83301 18.2999C4.83301 18.8614 5.2658 19.3165 5.79967 19.3165Z" fill="white"/>
<path id="Vector_20" d="M11.6005 19.3165C12.1343 19.3165 12.5671 18.8614 12.5671 18.2999C12.5671 17.7384 12.1343 17.2832 11.6005 17.2832C11.0666 17.2832 10.6338 17.7384 10.6338 18.2999C10.6338 18.8614 11.0666 19.3165 11.6005 19.3165Z" fill="white"/>
</g>
</g>
<defs>
<clipPath id="clip0_2131_85">
<rect width="58" height="61" fill="white"/>
</clipPath>
</defs>
</svg>
