<svg width="61" height="58" viewBox="0 0 61 58" fill="none" xmlns="http://www.w3.org/2000/svg">
<g id="photo-svgrepo-com (1) 1">
<path id="Vector" d="M32.9395 18.5599C32.9395 17.5992 32.12 16.8199 31.1095 16.8199H8.53953C7.5291 16.8199 6.70953 17.5992 6.70953 18.5599L6.70953 49.8799C6.70953 50.8407 7.5291 51.6199 8.53953 51.6199H31.1095C32.12 51.6199 32.9395 50.8407 32.9395 49.8799V18.5599ZM35.3795 18.5599V49.8799C35.3795 52.1219 33.4675 53.9399 31.1095 53.9399H8.53953C6.18156 53.9399 4.26953 52.1219 4.26953 49.8799L4.26953 18.5599C4.26953 16.3179 6.18156 14.4999 8.53953 14.4999H31.1095C33.4675 14.4999 35.3795 16.3179 35.3795 18.5599Z" fill="white"/>
<path id="Vector_2" d="M28.042 10.976L28.3799 9.1461C28.6714 7.56679 30.2552 6.51248 31.9157 6.79211L52.5911 10.2727C53.5777 10.4389 54.2478 11.3489 54.0745 12.2868L48.3954 43.0379C48.2204 43.9855 47.2699 44.6183 46.2736 44.4505L39.0969 43.2423C38.4334 43.1306 37.8003 43.5515 37.6829 44.1823C37.5654 44.8132 38.008 45.4151 38.6715 45.5268L45.8482 46.735C48.1728 47.1264 50.3905 45.65 50.7986 43.4391L56.4777 12.6881C56.8839 10.4894 55.3287 8.37765 53.0166 7.98825L32.3411 4.50763C29.3523 4.00426 26.5013 5.90223 25.9766 8.74491L25.6387 10.5747C25.5222 11.2057 25.9657 11.807 26.6293 11.9178C27.2929 12.0286 27.9254 11.6069 28.0419 10.9759L28.042 10.976Z" fill="white"/>
</g>
</svg>
