<svg width="58" height="61" viewBox="0 0 58 61" fill="none" xmlns="http://www.w3.org/2000/svg">
<g id="folder-svgrepo-com 1">
<path id="Vector" d="M11.2383 16.447C11.2383 15.3942 10.4268 14.5407 9.42579 14.5407C8.42475 14.5407 7.61329 15.3942 7.61329 16.447H11.2383ZM29.5387 14.5407C28.5378 14.5407 27.7262 15.3942 27.7262 16.447C27.7262 17.4997 28.5378 18.3532 29.5387 18.3532V14.5407ZM7.61329 16.447C7.61329 17.4997 8.42475 18.3532 9.42579 18.3532C10.4268 18.3532 11.2383 17.4997 11.2383 16.447H7.61329ZM27.7262 16.447C27.7262 17.4997 28.5378 18.3532 29.5387 18.3532C30.5397 18.3532 31.3512 17.4997 31.3512 16.447H27.7262ZM9.42579 14.5407C8.42475 14.5407 7.61329 15.3942 7.61329 16.447C7.61329 17.4997 8.42475 18.3532 9.42579 18.3532V14.5407ZM29.5387 18.3532C30.5397 18.3532 31.3512 17.4997 31.3512 16.447C31.3512 15.3942 30.5397 14.5407 29.5387 14.5407V18.3532ZM7.61329 16.447V44.1054L11.2383 44.1077V16.447H7.61329ZM7.61329 44.1054C7.61147 45.7046 8.19819 47.2459 9.25841 48.3924L11.857 45.7343C11.4652 45.3106 11.2376 44.7263 11.2383 44.1077L7.61329 44.1054ZM9.25841 48.3924C10.3201 49.5405 11.7711 50.1957 13.2948 50.1978L13.2993 46.3853C12.7671 46.3845 12.2473 46.1562 11.857 45.7343L9.25841 48.3924ZM13.2948 50.1978H43.2545V46.3853H13.2993L13.2948 50.1978ZM43.2545 50.1978C44.7782 50.1957 46.2314 49.5405 47.293 48.3924L44.6946 45.7343C44.3043 46.1562 43.7869 46.3845 43.2545 46.3853V50.1978ZM47.293 48.3924C48.3535 47.2459 48.94 45.7023 48.9383 44.1031L45.3133 44.1054C45.314 44.724 45.0864 45.3106 44.6946 45.7343L47.293 48.3924ZM48.9383 44.1031V20.6331L45.3133 20.6308V44.1054L48.9383 44.1031ZM48.9383 20.6331C48.94 19.034 48.3535 17.4925 47.293 16.3461L44.6946 19.0043C45.0864 19.4279 45.314 20.0122 45.3133 20.6308L48.9383 20.6331ZM47.293 16.3461C46.2314 15.198 44.7804 14.5427 43.2567 14.5407L43.2521 18.3532C43.7845 18.3539 44.3043 18.5822 44.6946 19.0043L47.293 16.3461ZM43.2567 14.5407H29.5387V18.3532H43.2521L43.2567 14.5407ZM11.2383 16.447V14.3526H7.61329V16.447H11.2383ZM11.2383 14.3526C11.2376 13.734 11.4652 13.1474 11.857 12.7238L9.25841 10.0656C8.19819 11.212 7.61147 12.7535 7.61329 14.3526H11.2383ZM11.857 12.7238C12.2473 12.3018 12.7671 12.0734 13.2993 12.0728L13.2971 8.26025C11.7734 8.26226 10.3201 8.91753 9.25841 10.0656L11.857 12.7238ZM13.2993 12.0728H25.6675L25.6697 8.26025H13.2971L13.2993 12.0728ZM25.6675 12.0728C26.1999 12.0734 26.7173 12.3018 27.1076 12.7238L29.706 10.0656C28.6443 8.91753 27.1934 8.26226 25.6697 8.26025L25.6675 12.0728ZM27.1076 12.7238C27.4993 13.1474 27.727 13.7317 27.7262 14.3504L31.3512 14.3549C31.3529 12.7558 30.7664 11.212 29.706 10.0656L27.1076 12.7238ZM27.7262 14.3504V16.447H31.3512V14.3549L27.7262 14.3504ZM9.42579 18.3532H29.5387V14.5407H9.42579V18.3532Z" fill="white"/>
</g>
</svg>
