<svg width="43" height="43" viewBox="0 0 43 43" fill="none" xmlns="http://www.w3.org/2000/svg">
<g clip-path="url(#clip0_37_101)">
<path fill-rule="evenodd" clip-rule="evenodd" d="M9.08002 32.1105C7.37567 29.6041 7.90559 26.1811 10.0539 24.0328L14.2504 19.8363C14.9951 19.0916 14.9951 17.8599 14.2504 17.1151C13.5056 16.3703 12.2739 16.3703 11.5291 17.1151L7.47593 21.1683C3.73781 24.9064 3.13628 30.9791 6.50201 35.0609C10.3547 39.7443 17.301 39.9878 21.4831 35.8057L25.8514 31.4374C26.5962 30.6926 26.5961 29.4609 25.8514 28.7161C25.1066 27.9714 23.8749 27.9714 23.1302 28.7161L18.7619 33.0844C16.0263 35.82 11.3716 35.4906 9.08002 32.1105ZM18.6186 27.2123L27.212 18.6189C27.9997 17.8312 27.9997 16.5422 27.212 15.7545C26.4243 14.9668 25.1353 14.9668 24.3476 15.7545L15.7542 24.3478C14.9665 25.1356 14.9665 26.4246 15.7542 27.2123C16.5419 28 17.8309 28 18.6186 27.2123ZM21.168 7.47621L17.1148 11.5294C16.3701 12.2742 16.3701 13.5059 17.1148 14.2506C17.8596 14.9954 19.0913 14.9954 19.836 14.2506L24.0325 10.0542C26.1808 7.90588 29.6038 7.37595 32.1102 9.08031C35.4903 11.3719 35.8197 16.0266 33.0841 18.7622L28.7158 23.1305C27.9711 23.8752 27.9711 25.1069 28.7158 25.8517C29.4606 26.5964 30.6923 26.5964 31.4371 25.8517L35.8054 21.4834C39.9875 17.3013 39.744 10.355 35.0749 6.48798C30.9931 3.12224 24.9061 3.7381 21.168 7.47621Z" fill="#29FFF1"/>
</g>
<defs>
<clipPath id="clip0_37_101">
<rect width="40.5095" height="20.2547" fill="white" transform="translate(0 28.6445) rotate(-45)"/>
</clipPath>
</defs>
</svg>
