<svg width="669" height="151" viewBox="0 0 669 151" fill="none" xmlns="http://www.w3.org/2000/svg">
<path d="M151 75.5C151 117.197 117.197 151 75.5 151C33.8025 151 0 117.197 0 75.5C0 33.8025 33.8025 0 75.5 0C117.197 0 151 33.8025 151 75.5Z" fill="#21CABF"/>
<path d="M53.9582 37.6029C50.3663 37.6029 47.2916 28.1092 44.5 27C41.5 24.5 41.8866 24.7921 40.8862 24.5C38.8862 23.9159 40 26.2996 41.5 42C41.6717 43.7977 38.3081 59.6569 40.8862 65.7866C43.4342 71.8446 46.7378 75.1585 49.0546 77.4541C46.0736 83.8717 40.5787 98.9712 42.7916 108.508C45.5833 120.539 59.5415 147.672 82.8898 151C85.6815 151 100.401 150.22 117.405 138.957C118.504 132.643 120.349 115.727 119.943 106.716C119.541 97.8128 111.012 83.5108 106.647 77.2453C112.569 66.1245 111.755 57.6133 111 50C109.398 33.8423 112.624 21.8856 111 22.4999C109.376 23.1143 101.162 32.8244 100.909 33.2511C99.1321 34.8722 97.398 37.2335 91.7723 36.5787C85.1739 35.8108 80.9163 36.0668 74.5149 36.0668C66.6475 36.0668 57.0036 37.6029 53.9582 37.6029Z" fill="white"/>
<path d="M61 71.025C64.8273 71.025 67.7146 69.675 68.554 69C73.5899 73.05 75.3525 76.7625 75.6043 78.1125C75.778 76.8011 77.5319 72.9907 83.1583 69.2531C84.4173 69.9281 87.2374 71.2275 89.4532 71.025C86.4317 73.5563 82.6547 78.8719 82.1511 83.175C81.7039 86.9961 81.3957 96.8438 82.1511 102.159C83.494 108.909 90.7626 142.609 96 146.456C93.3813 147.671 85.9281 149.325 82.4029 150C77.3669 143.166 70.4005 101.231 70.5683 94.5656C70.5683 91.6125 69.7626 86.2631 68.554 82.4156C67.3453 78.5681 63.6019 72.6281 61 71.025Z" fill="#21CABF"/>
<path d="M81.9999 48.6264C76.3813 52.7411 77.8507 67.4286 76 70.0001C74.4858 67.9429 75 64 74 57C73 45 63.5 44.5 57 45C57 45 55.5 45 53 47C50.4999 49.0001 49.4999 51.5 48.5 53C47.8294 55.5 46.5388 63.1974 53 68.4999C59.1814 73.573 61.5 69.4999 65.9999 76.4999C66.8412 75.7285 74 81.9999 83.9999 76.4999C84.8412 77.1857 84.587 75.9129 85.9999 74.4999C88.4999 71.9999 91.4857 70.7571 92.9999 70.4999C94.7665 69.8999 98.8043 69.1985 101.025 66.1127C103.246 63.0268 103.633 58.4839 103.549 56.5981C103.465 55.3981 103.349 50.6234 99.9999 47.9999C94.7319 43.8735 89 43.5 81.9999 48.6264Z" fill="#21CABF"/>
<circle cx="61.5" cy="57.5" r="4.5" fill="white"/>
<circle cx="91.5" cy="57.5" r="4.5" fill="white"/>
<path d="M205.28 37.24C201.653 37.24 198.573 36.76 196.04 35.8C193.533 34.84 191.627 33.4533 190.32 31.64C189.013 29.8 188.36 27.56 188.36 24.92C188.36 22.28 189.013 20.0533 190.32 18.24C191.627 16.4 193.533 15 196.04 14.04C198.573 13.08 201.653 12.6 205.28 12.6C205.333 12.6 205.48 12.6 205.72 12.6C205.987 12.6 206.24 12.6 206.48 12.6C206.747 12.6 206.893 12.6 206.92 12.6C210.52 12.6 213.56 13.08 216.04 14.04C218.547 15 220.44 16.4 221.72 18.24C223 20.08 223.64 22.3067 223.64 24.92C223.64 27.5067 223 29.7333 221.72 31.6C220.467 33.44 218.613 34.84 216.16 35.8C213.733 36.76 210.76 37.24 207.24 37.24C207.16 37.24 206.973 37.24 206.68 37.24C206.387 37.24 206.093 37.24 205.8 37.24C205.533 37.24 205.36 37.24 205.28 37.24ZM205.88 32.24C205.96 32.24 206.067 32.24 206.2 32.24C206.333 32.24 206.427 32.24 206.48 32.24C208.933 32.24 210.96 31.9733 212.56 31.44C214.187 30.88 215.4 30.0667 216.2 29C217 27.9067 217.4 26.5333 217.4 24.88C217.4 23.2267 216.987 21.8667 216.16 20.8C215.333 19.7333 214.12 18.9467 212.52 18.44C210.947 17.9067 208.96 17.64 206.56 17.64C206.507 17.64 206.4 17.64 206.24 17.64C206.107 17.64 205.987 17.64 205.88 17.64C203.347 17.64 201.253 17.8933 199.6 18.4C197.947 18.9067 196.707 19.7067 195.88 20.8C195.053 21.8667 194.64 23.24 194.64 24.92C194.64 26.6 195.08 27.9867 195.96 29.08C196.84 30.1467 198.107 30.9467 199.76 31.48C201.44 31.9867 203.48 32.24 205.88 32.24ZM203.04 40.24V9.8H209V40.24H203.04ZM234.448 22.28H247.928V27.32H234.448V22.28ZM234.928 33.8H250.168V39H228.488V11H249.648V16.2H234.928V33.8ZM268.802 39.48C266.589 39.48 264.535 39.12 262.642 38.4C260.775 37.68 259.149 36.6667 257.762 35.36C256.402 34.0533 255.335 32.52 254.562 30.76C253.815 29 253.442 27.08 253.442 25C253.442 22.92 253.815 21 254.562 19.24C255.335 17.48 256.415 15.9467 257.802 14.64C259.189 13.3333 260.815 12.32 262.682 11.6C264.549 10.88 266.575 10.52 268.762 10.52C270.975 10.52 273.002 10.88 274.842 11.6C276.709 12.32 278.322 13.3333 279.682 14.64C281.069 15.9467 282.149 17.48 282.922 19.24C283.695 20.9733 284.082 22.8933 284.082 25C284.082 27.08 283.695 29.0133 282.922 30.8C282.149 32.56 281.069 34.0933 279.682 35.4C278.322 36.68 276.709 37.68 274.842 38.4C273.002 39.12 270.989 39.48 268.802 39.48ZM268.762 33.96C270.015 33.96 271.162 33.7467 272.202 33.32C273.269 32.8933 274.202 32.28 275.002 31.48C275.802 30.68 276.415 29.7333 276.842 28.64C277.295 27.5467 277.522 26.3333 277.522 25C277.522 23.6667 277.295 22.4533 276.842 21.36C276.415 20.2667 275.802 19.32 275.002 18.52C274.229 17.72 273.309 17.1067 272.242 16.68C271.175 16.2533 270.015 16.04 268.762 16.04C267.509 16.04 266.349 16.2533 265.282 16.68C264.242 17.1067 263.322 17.72 262.522 18.52C261.722 19.32 261.095 20.2667 260.642 21.36C260.215 22.4533 260.002 23.6667 260.002 25C260.002 26.3067 260.215 27.52 260.642 28.64C261.095 29.7333 261.709 30.68 262.482 31.48C263.282 32.28 264.215 32.8933 265.282 33.32C266.349 33.7467 267.509 33.96 268.762 33.96ZM306.852 36.12V16.28H297.253L297.133 20.36C297.053 22.0933 296.933 23.7333 296.773 25.28C296.639 26.8267 296.426 28.24 296.133 29.52C295.839 30.7733 295.453 31.84 294.973 32.72C294.519 33.6 293.946 34.2267 293.253 34.6L286.333 33.72C287.293 33.7467 288.079 33.4133 288.693 32.72C289.333 32.0267 289.839 31.0533 290.213 29.8C290.586 28.52 290.853 27.0267 291.013 25.32C291.199 23.6133 291.333 21.76 291.413 19.76L291.733 11H313.253V36.12H306.852ZM285.413 44.8L285.453 33.72H317.173V44.8H311.173V39H291.413V44.8H285.413ZM334.935 39.48C332.721 39.48 330.668 39.12 328.775 38.4C326.908 37.68 325.281 36.6667 323.895 35.36C322.535 34.0533 321.468 32.52 320.695 30.76C319.948 29 319.575 27.08 319.575 25C319.575 22.92 319.948 21 320.695 19.24C321.468 17.48 322.548 15.9467 323.935 14.64C325.321 13.3333 326.948 12.32 328.815 11.6C330.681 10.88 332.708 10.52 334.895 10.52C337.108 10.52 339.135 10.88 340.975 11.6C342.841 12.32 344.455 13.3333 345.815 14.64C347.201 15.9467 348.281 17.48 349.055 19.24C349.828 20.9733 350.215 22.8933 350.215 25C350.215 27.08 349.828 29.0133 349.055 30.8C348.281 32.56 347.201 34.0933 345.815 35.4C344.455 36.68 342.841 37.68 340.975 38.4C339.135 39.12 337.121 39.48 334.935 39.48ZM334.895 33.96C336.148 33.96 337.295 33.7467 338.335 33.32C339.401 32.8933 340.335 32.28 341.135 31.48C341.935 30.68 342.548 29.7333 342.975 28.64C343.428 27.5467 343.655 26.3333 343.655 25C343.655 23.6667 343.428 22.4533 342.975 21.36C342.548 20.2667 341.935 19.32 341.135 18.52C340.361 17.72 339.441 17.1067 338.375 16.68C337.308 16.2533 336.148 16.04 334.895 16.04C333.641 16.04 332.481 16.2533 331.415 16.68C330.375 17.1067 329.455 17.72 328.655 18.52C327.855 19.32 327.228 20.2667 326.775 21.36C326.348 22.4533 326.135 23.6667 326.135 25C326.135 26.3067 326.348 27.52 326.775 28.64C327.228 29.7333 327.841 30.68 328.615 31.48C329.415 32.28 330.348 32.8933 331.415 33.32C332.481 33.7467 333.641 33.96 334.895 33.96ZM368.447 39.48C366.287 39.48 364.273 39.1333 362.407 38.44C360.567 37.72 358.967 36.7067 357.607 35.4C356.247 34.0933 355.18 32.56 354.407 30.8C353.66 29.04 353.287 27.1067 353.287 25C353.287 22.8933 353.66 20.96 354.407 19.2C355.18 17.44 356.247 15.9067 357.607 14.6C358.993 13.2933 360.607 12.2933 362.447 11.6C364.287 10.88 366.3 10.52 368.487 10.52C370.913 10.52 373.1 10.9467 375.047 11.8C377.02 12.6267 378.673 13.8533 380.007 15.48L375.847 19.32C374.887 18.2267 373.82 17.4133 372.647 16.88C371.473 16.32 370.193 16.04 368.807 16.04C367.5 16.04 366.3 16.2533 365.207 16.68C364.113 17.1067 363.167 17.72 362.367 18.52C361.567 19.32 360.94 20.2667 360.487 21.36C360.06 22.4533 359.847 23.6667 359.847 25C359.847 26.3333 360.06 27.5467 360.487 28.64C360.94 29.7333 361.567 30.68 362.367 31.48C363.167 32.28 364.113 32.8933 365.207 33.32C366.3 33.7467 367.5 33.96 368.807 33.96C370.193 33.96 371.473 33.6933 372.647 33.16C373.82 32.6 374.887 31.76 375.847 30.64L380.007 34.48C378.673 36.1067 377.02 37.3467 375.047 38.2C373.1 39.0533 370.9 39.48 368.447 39.48ZM384.23 39V11H390.67V29.24L404.03 11H410.11V39H403.71V20.8L390.35 39H384.23ZM417.082 39V11H423.522V29.24L436.882 11H442.962V39H436.562V20.8L423.202 39H417.082ZM430.002 9.2C427.335 9.2 425.375 8.66666 424.122 7.6C422.895 6.53333 422.268 5.02666 422.242 3.08H426.682C426.708 4.04 426.988 4.77333 427.522 5.28C428.082 5.76 428.908 6 430.002 6C431.068 6 431.882 5.76 432.442 5.28C433.002 4.77333 433.295 4.04 433.322 3.08H437.762C437.735 5.02666 437.095 6.53333 435.842 7.6C434.588 8.66666 432.642 9.2 430.002 9.2ZM463.173 39.48C461.013 39.48 459 39.1333 457.133 38.44C455.293 37.72 453.693 36.7067 452.333 35.4C450.973 34.0933 449.906 32.56 449.133 30.8C448.386 29.04 448.013 27.1067 448.013 25C448.013 22.8933 448.386 20.96 449.133 19.2C449.906 17.44 450.973 15.9067 452.333 14.6C453.72 13.2933 455.333 12.2933 457.173 11.6C459.013 10.88 461.026 10.52 463.213 10.52C465.64 10.52 467.826 10.9467 469.773 11.8C471.746 12.6267 473.4 13.8533 474.733 15.48L470.573 19.32C469.613 18.2267 468.546 17.4133 467.373 16.88C466.2 16.32 464.92 16.04 463.533 16.04C462.226 16.04 461.026 16.2533 459.933 16.68C458.84 17.1067 457.893 17.72 457.093 18.52C456.293 19.32 455.666 20.2667 455.213 21.36C454.786 22.4533 454.573 23.6667 454.573 25C454.573 26.3333 454.786 27.5467 455.213 28.64C455.666 29.7333 456.293 30.68 457.093 31.48C457.893 32.28 458.84 32.8933 459.933 33.32C461.026 33.7467 462.226 33.96 463.533 33.96C464.92 33.96 466.2 33.6933 467.373 33.16C468.546 32.6 469.613 31.76 470.573 30.64L474.733 34.48C473.4 36.1067 471.746 37.3467 469.773 38.2C467.826 39.0533 465.626 39.48 463.173 39.48ZM497.077 39L488.357 25.52L493.597 22.36L504.437 39H497.077ZM478.877 39V11H485.317V39H478.877ZM483.437 27.72V22.32H493.197V27.72H483.437ZM494.197 25.72L488.237 25L497.317 11H504.157L494.197 25.72ZM507.472 39V11H513.912V29.24L527.272 11H533.352V39H526.952V20.8L513.592 39H507.472ZM540.324 39V11H546.764V29.24L560.124 11H566.204V39H559.804V20.8L546.444 39H540.324ZM553.244 9.2C550.577 9.2 548.617 8.66666 547.364 7.6C546.137 6.53333 545.51 5.02666 545.484 3.08H549.924C549.95 4.04 550.23 4.77333 550.764 5.28C551.324 5.76 552.15 6 553.244 6C554.31 6 555.124 5.76 555.684 5.28C556.244 4.77333 556.537 4.04 556.564 3.08H561.004C560.977 5.02666 560.337 6.53333 559.084 7.6C557.83 8.66666 555.884 9.2 553.244 9.2ZM191.36 88V60H215.48V88H211.56V62.44L212.52 63.48H194.32L195.32 62.44V88H191.36ZM236.812 88.32C234.678 88.32 232.692 87.96 230.852 87.24C229.038 86.52 227.465 85.52 226.132 84.24C224.798 82.9333 223.758 81.4133 223.012 79.68C222.265 77.9467 221.892 76.0533 221.892 74C221.892 71.9467 222.265 70.0533 223.012 68.32C223.758 66.5867 224.798 65.08 226.132 63.8C227.465 62.4933 229.038 61.48 230.852 60.76C232.665 60.04 234.652 59.68 236.812 59.68C238.945 59.68 240.905 60.04 242.692 60.76C244.505 61.4533 246.078 62.4533 247.412 63.76C248.772 65.04 249.812 66.5467 250.532 68.28C251.278 70.0133 251.652 71.92 251.652 74C251.652 76.08 251.278 77.9867 250.532 79.72C249.812 81.4533 248.772 82.9733 247.412 84.28C246.078 85.56 244.505 86.56 242.692 87.28C240.905 87.9733 238.945 88.32 236.812 88.32ZM236.812 84.76C238.358 84.76 239.785 84.4933 241.092 83.96C242.425 83.4267 243.572 82.68 244.532 81.72C245.518 80.7333 246.278 79.5867 246.812 78.28C247.372 76.9733 247.652 75.5467 247.652 74C247.652 72.4533 247.372 71.0267 246.812 69.72C246.278 68.4133 245.518 67.28 244.532 66.32C243.572 65.3333 242.425 64.5733 241.092 64.04C239.785 63.5067 238.358 63.24 236.812 63.24C235.238 63.24 233.785 63.5067 232.452 64.04C231.145 64.5733 229.998 65.3333 229.012 66.32C228.025 67.28 227.252 68.4133 226.692 69.72C226.158 71.0267 225.892 72.4533 225.892 74C225.892 75.5467 226.158 76.9733 226.692 78.28C227.252 79.5867 228.025 80.7333 229.012 81.72C229.998 82.68 231.145 83.4267 232.452 83.96C233.785 84.4933 235.238 84.76 236.812 84.76ZM256.017 88.32C255.617 88.32 255.217 88.2933 254.817 88.24C254.417 88.1867 253.977 88.1067 253.497 88L253.777 84.44C254.203 84.5467 254.63 84.6 255.057 84.6C256.23 84.6 257.163 84.1333 257.857 83.2C258.55 82.2667 259.057 80.8533 259.377 78.96C259.723 77.0667 259.95 74.68 260.057 71.8L260.497 60H280.217V88H276.297V62.44L277.257 63.48H263.057L263.937 62.4L263.617 71.68C263.537 74.4533 263.35 76.88 263.057 78.96C262.763 81.04 262.323 82.7733 261.737 84.16C261.15 85.5467 260.39 86.5867 259.457 87.28C258.55 87.9733 257.403 88.32 256.017 88.32ZM288.938 88V60H292.898V81.6L309.458 60H313.138V88H309.218V66.44L292.618 88H288.938ZM327.588 88V62.44L328.588 63.48H318.028V60H341.108V63.48H330.548L331.508 62.44V88H327.588ZM349.609 72.08H364.009V75.48H349.609V72.08ZM349.969 84.52H366.289V88H345.969V60H365.729V63.48H349.969V84.52ZM369.258 60H373.858L381.178 70.24L388.498 60H393.178L383.698 73.44L393.938 88H389.218L381.178 76.84L373.178 88H368.578L378.778 73.6L369.258 60ZM418.12 60H422.12V88H418.12V60ZM402.04 88H398.04V60H402.04V88ZM418.48 75.52H401.64V72.04H418.48V75.52ZM430.852 88V60H434.812V81.6L451.372 60H455.052V88H451.132V66.44L434.532 88H430.852ZM480.441 76.64C478.867 77.3067 477.334 77.8133 475.841 78.16C474.374 78.48 472.947 78.64 471.561 78.64C468.147 78.64 465.494 77.8133 463.601 76.16C461.734 74.5067 460.801 72.1467 460.801 69.08V60H464.721V68.64C464.721 70.72 465.361 72.32 466.641 73.44C467.921 74.56 469.707 75.12 472.001 75.12C473.361 75.12 474.747 74.9467 476.161 74.6C477.601 74.2533 479.001 73.7467 480.361 73.08L480.441 76.64ZM479.761 88V60H483.721V88H479.761ZM496.094 72.08H510.494V75.48H496.094V72.08ZM496.454 84.52H512.774V88H492.454V60H512.214V63.48H496.454V84.52ZM531.536 88.32C529.403 88.32 527.43 87.9733 525.616 87.28C523.83 86.56 522.27 85.56 520.936 84.28C519.63 82.9733 518.603 81.4533 517.856 79.72C517.11 77.9867 516.736 76.08 516.736 74C516.736 71.92 517.11 70.0133 517.856 68.28C518.603 66.5467 519.643 65.04 520.976 63.76C522.31 62.4533 523.87 61.4533 525.656 60.76C527.47 60.04 529.443 59.68 531.576 59.68C533.736 59.68 535.723 60.0533 537.536 60.8C539.376 61.52 540.936 62.6 542.216 64.04L539.616 66.56C538.55 65.44 537.35 64.6133 536.016 64.08C534.683 63.52 533.256 63.24 531.736 63.24C530.163 63.24 528.696 63.5067 527.336 64.04C526.003 64.5733 524.843 65.32 523.856 66.28C522.87 67.24 522.096 68.3867 521.536 69.72C521.003 71.0267 520.736 72.4533 520.736 74C520.736 75.5467 521.003 76.9867 521.536 78.32C522.096 79.6267 522.87 80.76 523.856 81.72C524.843 82.68 526.003 83.4267 527.336 83.96C528.696 84.4933 530.163 84.76 531.736 84.76C533.256 84.76 534.683 84.4933 536.016 83.96C537.35 83.4 538.55 82.5467 539.616 81.4L542.216 83.92C540.936 85.36 539.376 86.4533 537.536 87.2C535.723 87.9467 533.723 88.32 531.536 88.32ZM566.567 88L556.407 74.2L559.647 72.2L571.127 88H566.567ZM547.727 88V60H551.647V88H547.727ZM550.447 75.68V72.16H559.527V75.68H550.447ZM560.007 74.44L556.327 73.88L566.367 60H570.647L560.007 74.44ZM575.227 88V60H579.187V81.6L595.747 60H599.427V88H595.507V66.44L578.907 88H575.227ZM608.157 88V60H612.117V81.6L628.677 60H632.357V88H628.437V66.44L611.837 88H608.157ZM620.197 58.04C618.01 58.04 616.317 57.56 615.117 56.6C613.944 55.64 613.344 54.2933 613.317 52.56H616.157C616.184 53.6 616.557 54.4133 617.277 55C617.997 55.56 618.97 55.84 620.197 55.84C621.397 55.84 622.357 55.56 623.077 55C623.824 54.4133 624.21 53.6 624.237 52.56H627.037C627.01 54.2933 626.397 55.64 625.197 56.6C624.024 57.56 622.357 58.04 620.197 58.04ZM197.08 137V111.44L198.08 112.48H187.52V109H210.6V112.48H200.04L201 111.44V137H197.08ZM219.102 121.08H233.502V124.48H219.102V121.08ZM219.462 133.52H235.782V137H215.462V109H235.222V112.48H219.462V133.52ZM238.751 109H243.351L250.671 119.24L257.991 109H262.671L253.191 122.44L263.431 137H258.711L250.671 125.84L242.671 137H238.071L248.271 122.6L238.751 109ZM287.612 109H291.612V137H287.612V109ZM271.532 137H267.532V109H271.532V137ZM287.972 124.52H271.132V121.04H287.972V124.52ZM300.344 137V109H304.304V130.6L320.864 109H324.544V137H320.624V115.44L304.024 137H300.344ZM352.114 137L341.954 123.2L345.194 121.2L356.674 137H352.114ZM333.274 137V109H337.194V137H333.274ZM335.994 124.68V121.16H345.074V124.68H335.994ZM345.554 123.44L341.874 122.88L351.914 109H356.194L345.554 123.44ZM360.85 133.48C362.237 133.987 363.517 134.12 364.69 133.88C365.864 133.613 366.917 132.72 367.85 131.2L369.21 129.04L369.61 128.6L379.89 109H383.85L371.41 132.04C370.477 133.8 369.384 135.133 368.13 136.04C366.904 136.92 365.57 137.4 364.13 137.48C362.717 137.587 361.277 137.32 359.81 136.68L360.85 133.48ZM369.49 132.16L357.21 109H361.49L371.69 128.96L369.49 132.16ZM388.001 137V109H391.281L403.841 130.16H402.081L414.481 109H417.761L417.801 137H413.961L413.921 115.04H414.841L403.801 133.6H401.961L390.841 115.04H391.841V137H388.001Z" fill="#21CABF"/>
</svg>
