<svg width="58" height="61" viewBox="0 0 58 61" fill="none" xmlns="http://www.w3.org/2000/svg">
<g id="achievements-svgrepo-com 1">
<path id="Shape" d="M21.3125 53.75C20.8318 53.75 20.3708 53.5492 20.0309 53.1917C19.691 52.8342 19.5 52.3493 19.5 51.8438C19.5 51.3382 19.691 50.8533 20.0309 50.4958C20.3708 50.1383 20.8318 49.9375 21.3125 49.9375H26.75C26.75 49.9375 26.75 49.9197 26.75 49.9095V42.2007C23.9878 41.8497 21.3705 40.7067 19.1844 38.8966C16.9983 37.0865 15.3276 34.679 14.3549 31.9374C11.7248 31.4175 9.35015 29.9471 7.64185 27.7805C5.93355 25.614 4.99904 22.8875 5 20.0729V14.9896C5.00064 14.4842 5.1918 13.9998 5.53158 13.6424C5.87135 13.2851 6.33199 13.084 6.8125 13.0833H12.4602L12.25 10.0333C12.2334 9.77252 12.268 9.51091 12.3517 9.26476C12.4353 9.01861 12.5662 8.79318 12.7362 8.60249C12.9062 8.41179 13.1116 8.2599 13.3398 8.15625C13.568 8.05261 13.814 7.99942 14.0625 8H43.0625C43.311 7.99942 43.557 8.05261 43.7852 8.15625C44.0134 8.2599 44.2188 8.41179 44.3888 8.60249C44.5588 8.79318 44.6897 9.01861 44.7733 9.26476C44.857 9.51091 44.8916 9.77252 44.875 10.0333L44.6623 13.0833H50.3125C50.5509 13.083 50.7871 13.1321 51.0074 13.228C51.2278 13.3238 51.428 13.4643 51.5965 13.6417C51.7651 13.819 51.8988 14.0295 51.9899 14.2613C52.081 14.493 52.1277 14.7414 52.1274 14.9921V20.0755C52.1271 22.89 51.1921 25.616 49.4841 27.7827C47.7761 29.9494 45.4022 31.4207 42.7725 31.9425C41.7983 34.6829 40.1267 37.0889 37.9403 38.8975C35.7538 40.7062 33.1367 41.848 30.375 42.1981V49.9095C30.375 49.9095 30.375 49.9273 30.375 49.9375H35.8125C36.2932 49.9375 36.7542 50.1383 37.0941 50.4958C37.434 50.8533 37.625 51.3382 37.625 51.8438C37.625 52.3493 37.434 52.8342 37.0941 53.1917C36.7542 53.5492 36.2932 53.75 35.8125 53.75H21.3125ZM17.0568 27.2328C17.2676 30.291 18.5715 33.1518 20.7062 35.2401C22.841 37.3284 25.6483 38.4892 28.5637 38.4892C31.4791 38.4892 34.2864 37.3284 36.4212 35.2401C38.5559 33.1518 39.8598 30.291 40.0707 27.2328L41.1147 11.8125H16.0103L17.0568 27.2328ZM43.686 27.5022C43.686 27.5683 43.686 27.6344 43.6715 27.6979C45.1023 27.0698 46.3245 26.0109 47.1845 24.6541C48.0445 23.2974 48.5039 21.7035 48.5048 20.0729V16.8958H44.4037L43.686 27.5022ZM8.625 20.0729C8.62395 21.6829 9.07037 23.258 9.90934 24.6046C10.7483 25.9512 11.9433 27.0105 13.3472 27.6522L12.6463 16.8958H8.625V20.0729Z" fill="white"/>
</g>
</svg>
