<svg width="1168" height="37" viewBox="0 0 1168 37" fill="none" xmlns="http://www.w3.org/2000/svg">
<path d="M2.99902 15.9985C1.61831 15.9985 0.499023 17.1178 0.499023 18.4985C0.499023 19.8792 1.61831 20.9985 2.99902 20.9985V15.9985ZM1166.77 20.2663C1167.74 19.29 1167.74 17.7071 1166.77 16.7308L1150.86 0.820866C1149.88 -0.155445 1148.3 -0.155445 1147.32 0.820866C1146.35 1.79718 1146.35 3.38009 1147.32 4.3564L1161.46 18.4985L1147.32 32.6407C1146.35 33.617 1146.35 35.1999 1147.32 36.1762C1148.3 37.1525 1149.88 37.1525 1150.86 36.1762L1166.77 20.2663ZM2.99902 20.9985H1165V15.9985H2.99902V20.9985Z" fill="url(#paint0_linear_2126_63)"/>
<defs>
<linearGradient id="paint0_linear_2126_63" x1="584" y1="18.4877" x2="3.00278" y2="20.5511" gradientUnits="userSpaceOnUse">
<stop stop-color="#29FFF1"/>
<stop offset="1" stop-color="white" stop-opacity="0"/>
</linearGradient>
</defs>
</svg>
