<svg width="58" height="61" viewBox="0 0 58 61" fill="none" xmlns="http://www.w3.org/2000/svg">
<g id="diploma-certificate-degree-svgrepo-com 1">
<g id="ICON">
<path id="Vector" fill-rule="evenodd" clip-rule="evenodd" d="M24.4698 36.1368C18.5711 36.0414 12.82 35.7526 6.94569 35.2685C6.89131 35.2637 6.69375 35.2656 6.64844 35.2656C5.73222 35.2656 4.81691 35.8908 4.12906 37.1137C3.33609 38.5253 2.79688 40.7985 2.79688 43.3672C2.79688 45.9358 3.33609 48.209 4.12906 49.6206C4.81691 50.8435 5.73222 51.4687 6.64844 51.4687C6.69375 51.4687 6.94116 51.4697 7.02181 51.4563C12.8798 50.4451 18.6037 49.8179 24.4689 49.5996V57.1875C24.4689 57.5487 24.6629 57.8785 24.9701 58.0396C25.2773 58.2016 25.6443 58.1663 25.9189 57.95L29.0002 55.5195L32.0814 57.95C32.356 58.1663 32.7231 58.2016 33.0303 58.0396C33.3375 57.8785 33.5314 57.5487 33.5314 57.1875V49.6025C39.3831 49.8236 45.2248 50.4498 51.0565 51.4563C51.1372 51.4697 51.3846 51.4687 51.4299 51.4687C52.347 51.4687 53.2614 50.8435 53.9493 49.6206C54.7422 48.209 55.2814 45.9358 55.2814 43.3672C55.2814 40.7985 54.7422 38.5253 53.9493 37.1137C53.2614 35.8908 52.347 35.2656 51.4299 35.2656C51.3846 35.2656 51.187 35.2637 51.1326 35.2685C45.2837 35.7507 39.4157 36.0395 33.5305 36.1358C33.4888 34.5946 32.2881 33.3593 30.8127 33.3593H27.1877C25.7123 33.3593 24.5115 34.5956 24.4698 36.1368ZM31.7189 47.804C30.9269 48.3148 29.9962 48.6093 29.0002 48.6093C28.0042 48.6093 27.0735 48.3148 26.2814 47.804V55.2812L28.4564 53.5656C28.7791 53.3111 29.2213 53.3111 29.5439 53.5656L31.7189 55.2812V47.804ZM51.4299 37.1718C51.8159 37.1718 52.0996 37.5693 52.3887 38.084C53.0575 39.2744 53.4689 41.2007 53.4689 43.3672C53.4689 45.5336 53.0575 47.4599 52.3887 48.6503C52.0996 49.165 51.8159 49.5625 51.4299 49.5625C51.0438 49.5625 50.7602 49.165 50.4711 48.6503C49.8023 47.4599 49.3908 45.5336 49.3908 43.3672C49.3908 41.2007 49.8023 39.2744 50.4711 38.084C50.7602 37.5693 51.0438 37.1718 51.4299 37.1718ZM6.64844 37.1718C7.0345 37.1718 7.31816 37.5693 7.60725 38.084C8.27606 39.2744 8.6875 41.2007 8.6875 43.3672C8.6875 45.5336 8.27606 47.4599 7.60725 48.6503C7.31816 49.165 7.0345 49.5625 6.64844 49.5625C6.26238 49.5625 5.97872 49.165 5.68963 48.6503C5.02081 47.4599 4.60938 45.5336 4.60938 43.3672C4.60938 41.2007 5.02081 39.2744 5.68963 38.084C5.97872 37.5693 6.26238 37.1718 6.64844 37.1718ZM48.7782 37.3634C43.7095 37.7332 38.6273 37.9591 33.5314 38.042V40.422C33.9637 41.2207 34.2111 42.1453 34.2111 43.1289C34.2111 44.1125 33.9637 45.037 33.5314 45.8358V47.6953C38.5838 47.884 43.628 48.3692 48.6649 49.1383C48.0079 47.7191 47.5783 45.6604 47.5783 43.3672C47.5783 40.9453 48.0577 38.7855 48.7782 37.3634ZM9.30103 37.3634C10.0206 38.7855 10.5 40.9453 10.5 43.3672C10.5 45.6604 10.0704 47.7172 9.41431 49.1374C14.4431 48.3644 19.4039 47.8783 24.4689 47.6924V45.8358C24.0367 45.037 23.7893 44.1125 23.7893 43.1289C23.7893 42.1453 24.0367 41.2207 24.4689 40.422V38.043C19.3604 37.961 14.3615 37.7351 9.30103 37.3634ZM29.0002 39.5547C30.8761 39.5547 32.3986 41.1559 32.3986 43.1289C32.3986 45.1018 30.8761 46.7031 29.0002 46.7031C27.1243 46.7031 25.6018 45.1018 25.6018 43.1289C25.6018 41.1559 27.1243 39.5547 29.0002 39.5547ZM31.7189 38.4538V36.2187C31.7189 35.6926 31.3129 35.2656 30.8127 35.2656H27.1877C26.6874 35.2656 26.2814 35.6926 26.2814 36.2187V38.4538C27.0735 37.9429 28.0042 37.6484 29.0002 37.6484C29.9962 37.6484 30.9269 37.9429 31.7189 38.4538ZM12.6877 14.8754V24.7421C12.6877 24.7555 12.6877 24.7679 12.6886 24.7812H11.7814C11.2812 24.7812 10.8752 25.2082 10.8752 25.7343V31.9297C10.8752 32.4558 11.2812 32.8828 11.7814 32.8828H15.4064C15.9067 32.8828 16.3127 32.4558 16.3127 31.9297V25.7343C16.3127 25.2082 15.9067 24.7812 15.4064 24.7812H14.4993C14.5002 24.7679 14.5002 24.7555 14.5002 24.7421V15.9153L17.2198 17.4755C17.2189 17.4908 17.2189 17.506 17.2189 17.5213V26.6827C17.2189 28.0009 18.0753 29.1484 19.2924 29.4611L28.8008 31.902C28.9422 31.9392 29.0899 31.9392 29.2313 31.902C29.2313 31.902 35.7844 30.215 38.7098 29.4611C39.9259 29.1484 40.7814 28.0009 40.7814 26.6837C40.7814 23.7499 40.7814 17.5213 40.7814 17.5213C40.7814 17.4993 40.7805 17.4774 40.7796 17.4555L46.1999 14.3464C46.4908 14.1787 46.6721 13.8584 46.6721 13.5096C46.6721 13.1607 46.4908 12.8395 46.1999 12.6727L29.4162 3.04425C29.1452 2.88889 28.8189 2.88889 28.548 3.04425L11.7642 12.6727C11.4733 12.8395 11.2921 13.1607 11.2921 13.5096C11.2921 13.8584 11.4733 14.1787 11.7642 14.3464L12.6877 14.8754ZM14.5002 26.6875V30.9765H12.6877V26.6875H14.5002ZM15.7526 12.5564H24.4046C24.9048 12.5564 25.3108 12.9834 25.3108 13.5096C25.3108 14.0357 24.9048 14.4627 24.4046 14.4627H15.7526L28.9821 22.0524L31.38 20.6761C31.8195 20.4245 32.3705 20.5951 32.6098 21.0564C32.849 21.5187 32.6868 22.0982 32.2482 22.3498L29.4162 23.9739C29.1452 24.1293 28.8189 24.1293 28.548 23.9739L19.0314 18.5154V26.6827C19.0314 27.1221 19.3169 27.5043 19.7229 27.6091L29.0147 29.9958L38.2784 27.6101C38.6835 27.5053 38.9689 27.1231 38.9689 26.6837V18.4944L34.9742 20.7857C34.5347 21.0383 33.9837 20.8677 33.7444 20.4054C33.5052 19.9441 33.6665 19.3646 34.106 19.113L43.8736 13.5096L28.9821 4.96671L15.7526 12.5564Z" fill="white"/>
</g>
</g>
</svg>
