<svg width="63" height="61" viewBox="0 0 63 61" fill="none" xmlns="http://www.w3.org/2000/svg">
<g id="medical-medicine-health-25-svgrepo-com 1">
<g id="_x38_">
<path id="Vector" d="M47.1232 54.6562H15.8752C15.1822 54.6562 14.6152 54.1072 14.6152 53.4362V12.4442C14.6152 11.7732 15.1822 11.2242 15.8752 11.2242H24.8842C25.5772 11.2242 26.1442 11.7732 26.1442 12.4442V13.9082H36.7912V12.4442C36.7912 11.7732 37.3582 11.2242 38.0512 11.2242H47.0602C47.7532 11.2242 48.3202 11.7732 48.3202 12.4442V53.4362C48.3832 54.1072 47.8162 54.6562 47.1232 54.6562ZM17.1352 52.2162H45.8632V13.6642H39.3742V15.1282C39.3742 15.7992 38.8072 16.3482 38.1142 16.3482H24.8842C24.1912 16.3482 23.6242 15.7992 23.6242 15.1282V13.6642H17.1352V52.2162ZM43.0282 50.2642H19.9702C19.2772 50.2642 18.7102 49.7152 18.7102 49.0442V18.3002C18.7102 17.6292 19.2772 17.0802 19.9702 17.0802H43.0282C43.7212 17.0802 44.2882 17.6292 44.2882 18.3002V49.0442C44.2882 49.7152 43.7212 50.2642 43.0282 50.2642ZM21.2302 47.8242H41.7682V19.5202H21.2302V47.8242ZM38.1142 16.3482H24.8842C24.1912 16.3482 23.6242 15.7992 23.6242 15.1282V10.4312C23.6242 9.76024 24.1912 9.21124 24.8842 9.21124H27.5932C28.0342 7.56424 29.6092 6.34424 31.4362 6.34424C33.2632 6.34424 34.8382 7.56424 35.2792 9.21124H37.9882C38.6812 9.21124 39.2482 9.76024 39.2482 10.4312V15.1282C39.3742 15.7992 38.8072 16.3482 38.1142 16.3482ZM26.1442 13.9082H36.7912V11.6512H34.2082C33.8302 11.6512 33.5152 11.5292 33.2632 11.2852C33.0112 11.0412 32.8852 10.6752 32.9482 10.3702V10.2482C32.9482 9.45524 32.2552 8.84524 31.4362 8.84524C30.6172 8.84524 29.9872 9.45524 29.9242 10.2482V10.3702C29.9872 10.7362 29.8612 11.0412 29.6092 11.2852C29.3572 11.5292 29.0422 11.7122 28.6642 11.7122H26.0812V13.9082H26.1442ZM34.0192 38.0642H28.9792C28.2862 38.0642 27.7192 37.5152 27.7192 36.8442V34.4042H25.1992C24.5062 34.4042 23.9392 33.8552 23.9392 33.1842V28.3652C23.9392 27.6942 24.5062 27.1452 25.1992 27.1452H27.7192V24.7052C27.7192 24.0342 28.2862 23.4852 28.9792 23.4852H34.0192C34.7122 23.4852 35.2792 24.0342 35.2792 24.7052V27.1452H37.7992C38.4922 27.1452 39.0592 27.6942 39.0592 28.3652V33.1842C39.0592 33.8552 38.4922 34.4042 37.7992 34.4042H35.2792V36.8442C35.2792 37.5152 34.7122 38.0642 34.0192 38.0642ZM30.2392 35.6242H32.7592V33.1842C32.7592 32.5132 33.3262 31.9642 34.0192 31.9642H36.5392V29.5852H34.0192C33.3262 29.5852 32.7592 29.0362 32.7592 28.3652V25.9252H30.2392V28.3652C30.2392 29.0362 29.6722 29.5852 28.9792 29.5852H26.4592V31.9642H28.9792C29.6722 31.9642 30.2392 32.5132 30.2392 33.1842V35.6242ZM38.9962 42.8832C38.9962 42.2122 38.4292 41.6632 37.7362 41.6632H25.2622C24.5692 41.6632 24.0022 42.2122 24.0022 42.8832C24.0022 43.5542 24.5692 44.1032 25.2622 44.1032H37.7362C38.4292 44.1032 38.9962 43.5542 38.9962 42.8832Z" fill="white"/>
</g>
</g>
</svg>
