<svg width="29.000000" height="31.000000" viewBox="0 0 29 31" fill="none" xmlns="http://www.w3.org/2000/svg" xmlns:xlink="http://www.w3.org/1999/xlink">
	<desc>
			Created with Pixso.
	</desc>
	<defs>
		<clipPath id="clip14_1129">
			<rect id="bandaid-svgrepo-com" width="29.000000" height="31.000000" fill="white" fill-opacity="0"/>
		</clipPath>
	</defs>
	<g clip-path="url(#clip14_1129)">
		<path id="path" d="M26.76 2.38C25.32 0.84 23.4 0 21.37 0C19.33 0 17.41 0.84 15.97 2.38L2.23 17.08C-0.74 20.25 -0.74 25.43 2.23 28.61C3.67 30.15 5.59 31 7.62 31C9.66 31 11.58 30.15 13.02 28.61L26.76 13.92C29.74 10.74 29.74 5.56 26.76 2.38ZM14.5 23.47L7.03 15.5L14.5 7.52L21.96 15.49L14.5 23.47ZM7.62 28.48C6.21 28.48 4.89 27.9 3.89 26.83C1.83 24.63 1.83 21.05 3.89 18.85L5.37 17.27L12.83 25.25L11.36 26.83C10.36 27.9 9.03 28.48 7.62 28.48ZM25.1 12.14L23.62 13.72L16.16 5.74L17.63 4.16C18.63 3.09 19.96 2.51 21.37 2.51C22.78 2.51 24.1 3.09 25.1 4.16C27.16 6.36 27.16 9.94 25.1 12.14Z" fill="#FFFFFF" fill-opacity="1.000000" fill-rule="nonzero"/>
		<path id="path" d="M8.31 23.68C7.97 24.05 7.97 24.64 8.31 25.01C8.65 25.37 9.21 25.37 9.55 25.01C9.89 24.64 9.9 24.05 9.55 23.68C9.21 23.31 8.65 23.31 8.31 23.68Z" fill="#FFFFFF" fill-opacity="1.000000" fill-rule="nonzero"/>
		<path id="path" d="M5.6 20.78C5.25 21.15 5.25 21.74 5.6 22.11C5.94 22.48 6.5 22.48 6.84 22.11C7.18 21.74 7.18 21.15 6.84 20.78C6.5 20.41 5.94 20.41 5.6 20.78Z" fill="#FFFFFF" fill-opacity="1.000000" fill-rule="nonzero"/>
		<ellipse id="circle" cx="5.881836" cy="24.726738" rx="0.878783" ry="0.939388" fill="#FFFFFF" fill-opacity="1.000000"/>
		<path id="path" d="M19.44 5.98C19.09 6.35 19.09 6.94 19.44 7.31C19.78 7.68 20.34 7.68 20.68 7.31C21.02 6.94 21.02 6.35 20.68 5.98C20.34 5.62 19.78 5.62 19.44 5.98Z" fill="#FFFFFF" fill-opacity="1.000000" fill-rule="nonzero"/>
		<ellipse id="circle" cx="22.775391" cy="9.549820" rx="0.878627" ry="0.939221" fill="#FFFFFF" fill-opacity="1.000000"/>
		<ellipse id="circle" cx="23.118164" cy="6.273376" rx="0.878782" ry="0.939389" fill="#FFFFFF" fill-opacity="1.000000"/>
	</g>
</svg>
