<svg width="22.000000" height="23.000000" viewBox="0 0 22 23" fill="none" xmlns="http://www.w3.org/2000/svg" xmlns:xlink="http://www.w3.org/1999/xlink">
	<desc>
			Created with Pixso.
	</desc>
	<defs>
		<clipPath id="clip3_297">
			<rect id="chart-mixed-alt-svgrepo-com" width="22.000000" height="23.000000" fill="white" fill-opacity="0"/>
		</clipPath>
	</defs>
	<g clip-path="url(#clip3_297)">
		<path id="path" d="M4.12 20.12C3.36 20.12 2.75 19.48 2.75 18.68L2.75 16.77C2.75 15.97 3.36 15.33 4.12 15.33C4.88 15.33 5.5 15.97 5.5 16.77L5.5 18.68C5.5 19.48 4.88 20.12 4.12 20.12ZM10.54 20.12C9.78 20.12 9.16 19.48 9.16 18.68L9.16 13.89C9.16 13.1 9.78 12.45 10.54 12.45C11.3 12.45 11.91 13.1 11.91 13.89L11.91 18.68C11.91 19.48 11.3 20.12 10.54 20.12ZM16.95 20.12C16.19 20.12 15.58 19.48 15.58 18.68L15.58 15.81C15.58 15.01 16.19 14.37 16.95 14.37C17.71 14.37 18.33 15.01 18.33 15.81L18.33 18.68C18.33 19.48 17.71 20.12 16.95 20.12ZM18.74 2.34L18.74 2.31C19.06 2.03 19.52 2.06 19.8 2.37C20.08 2.68 20.06 3.15 19.75 3.43L19.72 3.43L18.74 2.34ZM3.25 11.07L3.25 11.1C2.93 11.38 2.47 11.35 2.19 11.04C1.91 10.72 1.93 10.26 2.24 9.98L2.27 9.98L3.25 11.07Z" fill="#000000" fill-opacity="0" fill-rule="nonzero"/>
		<path id="path" d="M19.25 2.87L12.83 8.62L9.16 4.79L2.75 10.54M2.75 18.68L2.75 16.77C2.75 15.97 3.36 15.33 4.12 15.33C4.88 15.33 5.5 15.97 5.5 16.77L5.5 18.68C5.5 19.48 4.88 20.12 4.12 20.12C3.36 20.12 2.75 19.48 2.75 18.68ZM9.16 18.68L9.16 13.89C9.16 13.1 9.78 12.45 10.54 12.45C11.3 12.45 11.91 13.1 11.91 13.89L11.91 18.68C11.91 19.48 11.3 20.12 10.54 20.12C9.78 20.12 9.16 19.48 9.16 18.68ZM15.58 18.68L15.58 15.81C15.58 15.01 16.19 14.37 16.95 14.37C17.71 14.37 18.33 15.01 18.33 15.81L18.33 18.68C18.33 19.48 17.71 20.12 16.95 20.12C16.19 20.12 15.58 19.48 15.58 18.68Z" stroke="#FFFFFF" stroke-opacity="1.000000" stroke-width="1.500000" stroke-linejoin="round" stroke-linecap="round"/>
	</g>
</svg>
