<svg width="89" height="89" viewBox="0 0 89 89" fill="none" xmlns="http://www.w3.org/2000/svg">
<g id="document-scanner-svgrepo-com 3">
<g id="b">
<path id="c" d="M52.7168 23.9399H56.6267" stroke="white" stroke-width="2.5" stroke-linecap="round" stroke-linejoin="round"/>
<path id="d" d="M52.7168 27.8496H55.2581" stroke="white" stroke-width="2.5" stroke-linecap="round" stroke-linejoin="round"/>
<path id="e" d="M52.7168 23.9399V31.7597" stroke="white" stroke-width="2.5" stroke-linecap="round" stroke-linejoin="round"/>
</g>
<path id="f" d="M43.7305 31.7602V23.9404H45.0011C47.1516 23.9404 48.911 25.6998 48.911 27.8503C48.911 30.0008 47.1516 31.7602 45.0011 31.7602H43.7305Z" stroke="white" stroke-width="2.5" stroke-linecap="round" stroke-linejoin="round"/>
<g id="g">
<path id="h" d="M35.0527 31.3286V23.5088H37.5942C39.0605 23.5088 40.2335 24.6817 40.2335 26.148C40.2335 27.6143 39.0605 28.7872 37.5942 28.7872H35.0527" stroke="white" stroke-width="2.5" stroke-linecap="round" stroke-linejoin="round"/>
</g>
<path id="i" d="M30.8945 66.1426H45.0804" stroke="white" stroke-width="2.5" stroke-linecap="round" stroke-linejoin="round"/>
<path id="j" d="M30.9492 60.6162H56.391" stroke="white" stroke-width="2.5" stroke-linecap="round" stroke-linejoin="round"/>
<path id="k" d="M30.9492 54.8022H60.9025" stroke="white" stroke-width="2.5" stroke-linecap="round" stroke-linejoin="round"/>
<path id="l" d="M63.4973 17.2212H27.5953C25.5417 17.2212 23.877 18.886 23.877 20.9395V69.2241C23.877 71.2777 25.5417 72.9424 27.5953 72.9424H63.4973C65.5509 72.9424 67.2157 71.2777 67.2157 69.2241V20.9395C67.2157 18.886 65.5509 17.2212 63.4973 17.2212Z" stroke="white" stroke-width="2.5" stroke-linecap="round" stroke-linejoin="round"/>
<path id="m" d="M24.5699 10.1514H13.0352V21.9652" stroke="white" stroke-width="2.5" stroke-linecap="round" stroke-linejoin="round"/>
<path id="n" d="M64.3828 10.1514H76.1037V21.9652" stroke="white" stroke-width="2.5" stroke-linecap="round" stroke-linejoin="round"/>
<path id="o" d="M76.1037 67.1743V78.8487H64.3828" stroke="white" stroke-width="2.5" stroke-linecap="round" stroke-linejoin="round"/>
<path id="p" d="M24.5699 78.8487H13.0352V67.1743" stroke="white" stroke-width="2.5" stroke-linecap="round" stroke-linejoin="round"/>
<path id="q" d="M10.1973 44.6626H78.8014" stroke="white" stroke-width="2.5" stroke-linecap="round" stroke-linejoin="round"/>
<path id="r" d="M30.8945 38.4302H60.8478" stroke="white" stroke-width="2.5" stroke-linecap="round" stroke-linejoin="round"/>
<path id="s" d="M30.9492 48.0581H60.9025" stroke="white" stroke-width="2.5" stroke-linecap="round" stroke-linejoin="round"/>
</g>
</svg>
