<svg width="22.000000" height="31.000000" viewBox="0 0 22 31" fill="none" xmlns="http://www.w3.org/2000/svg" xmlns:xlink="http://www.w3.org/1999/xlink">
	<desc>
			Created with Pixso.
	</desc>
	<defs/>
	<path id="path" d="M13.5 8.8C17.64 8.8 21 11.31 21 14.4L21 28.41C21 28.93 20.44 29.35 19.75 29.35L7.25 29.35C6.55 29.35 6 28.93 6 28.41L6 14.4L6 14.19C6.15 11.19 9.45 8.8 13.5 8.8Z" fill="#000000" fill-opacity="0" fill-rule="nonzero"/>
	<path id="path" d="M21 14.4L21 28.41C21 28.93 20.44 29.35 19.75 29.35L7.25 29.35C6.55 29.35 6 28.93 6 28.41L6 14.4L6 14.19C6.15 11.19 9.45 8.8 13.5 8.8C17.64 8.8 21 11.31 21 14.4Z" stroke="#FFFFFF" stroke-opacity="1.000000" stroke-width="1.500000"/>
	<path id="path" d="" fill="#000000" fill-opacity="0" fill-rule="nonzero"/>
	<path id="path" d="M12.35 4.18L12.35 8.02" stroke="#FFFFFF" stroke-opacity="1.000000" stroke-width="1.500000"/>
	<path id="path" d="" fill="#000000" fill-opacity="0" fill-rule="nonzero"/>
	<path id="path" d="M1.23 21.45L6.17 21.45" stroke="#FFFFFF" stroke-opacity="1.000000" stroke-width="1.500000"/>
	<path id="path" d="" fill="#000000" fill-opacity="0" fill-rule="nonzero"/>
	<path id="path" d="M12.35 4.18L18.52 0.35" stroke="#FFFFFF" stroke-opacity="1.000000" stroke-width="1.500000"/>
	<path id="path" d="" fill="#000000" fill-opacity="0" fill-rule="nonzero"/>
	<path id="path" d="M21 4.69L12.35 4.69C5.53 4.69 0 8.95 0 14.22L0 26.61" stroke="#FFFFFF" stroke-opacity="1.000000" stroke-width="1.500000"/>
	<path id="path" d="M12.75 6.06C13.99 6.06 15 5.14 15 4C15 2.87 13.99 1.95 12.75 1.95C11.5 1.95 10.5 2.87 10.5 4C10.5 5.14 11.5 6.06 12.75 6.06Z" fill="#FFFFFF" fill-opacity="1.000000" fill-rule="nonzero"/>
</svg>
