<svg width="17.000000" height="13.000000" viewBox="0 0 17 13" fill="none" xmlns="http://www.w3.org/2000/svg" xmlns:xlink="http://www.w3.org/1999/xlink">
	<desc>
			Created with Pixso.
	</desc>
	<defs/>
	<path id="path" d="M9.52 10.05L9.49 10.05C9.23 9.72 9.28 9.26 9.61 8.99C9.94 8.73 10.4 8.78 10.66 9.11L10.66 9.14L9.52 10.05ZM14.98 6.76L14.98 6.73C15.23 6.4 15.69 6.33 16.03 6.58C16.36 6.83 16.43 7.29 16.18 7.63L16.15 7.64L14.98 6.76Z" fill="#000000" fill-opacity="0" fill-rule="nonzero"/>
	<path id="path" d="M10.08 9.58L12 11.97L15.58 7.18" stroke="#FFFFFF" stroke-opacity="1.000000" stroke-width="1.500000" stroke-linejoin="round" stroke-linecap="round"/>
	<path id="path" d="M0.02 8.39L0 8.41C-0.42 8.41 -0.75 8.08 -0.75 7.66C-0.75 7.24 -0.42 6.91 0 6.91L0.02 6.93L0.02 8.39ZM6.39 6.93L6.41 6.91C6.83 6.91 7.16 7.24 7.16 7.66C7.16 8.08 6.83 8.41 6.41 8.41L6.39 8.39L6.39 6.93Z" fill="#000000" fill-opacity="0" fill-rule="nonzero"/>
	<path id="path" d="M0 7.66L6.41 7.66" stroke="#FFFFFF" stroke-opacity="1.000000" stroke-width="1.500000" stroke-linecap="round"/>
	<path id="path" d="M0.02 12.23L0 12.25C-0.42 12.25 -0.75 11.92 -0.75 11.5C-0.75 11.08 -0.42 10.75 0 10.75L0.02 10.77L0.02 12.23ZM6.39 10.77L6.41 10.75C6.83 10.75 7.16 11.08 7.16 11.5C7.16 11.92 6.83 12.25 6.41 12.25L6.39 12.23L6.39 10.77Z" fill="#000000" fill-opacity="0" fill-rule="nonzero"/>
	<path id="path" d="M0 11.5L6.41 11.5" stroke="#FFFFFF" stroke-opacity="1.000000" stroke-width="1.500000" stroke-linecap="round"/>
	<path id="path" d="M0.02 0.72L0 0.75C-0.42 0.75 -0.75 0.42 -0.75 0C-0.75 -0.43 -0.42 -0.75 0 -0.75L0.02 -0.73L0.02 0.72ZM9.6 -0.73L9.62 -0.75C10.04 -0.75 10.37 -0.43 10.37 0C10.37 0.42 10.04 0.75 9.62 0.75L9.6 0.72L9.6 -0.73ZM15.56 -0.73L15.58 -0.75C16 -0.75 16.33 -0.43 16.33 0C16.33 0.42 16 0.75 15.58 0.75L15.56 0.72L15.56 -0.73ZM13.54 0.72L13.52 0.75C13.1 0.75 12.77 0.42 12.77 0C12.77 -0.43 13.1 -0.75 13.52 -0.75L13.54 -0.73L13.54 0.72Z" fill="#000000" fill-opacity="0" fill-rule="nonzero"/>
	<path id="path" d="M0 0L9.62 0M15.58 0L13.52 0" stroke="#FFFFFF" stroke-opacity="1.000000" stroke-width="1.500000"/>
	<path id="path" d="M15.56 3.1L15.58 3.08C16 3.08 16.33 3.41 16.33 3.83C16.33 4.25 16 4.58 15.58 4.58L15.56 4.56L15.56 3.1ZM5.97 4.56L5.95 4.58C5.53 4.58 5.2 4.25 5.2 3.83C5.2 3.41 5.53 3.08 5.95 3.08L5.97 3.1L5.97 4.56ZM0.02 4.56L0 4.58C-0.42 4.58 -0.75 4.25 -0.75 3.83C-0.75 3.41 -0.42 3.08 0 3.08L0.02 3.1L0.02 4.56ZM2.04 3.1L2.06 3.08C2.48 3.08 2.81 3.41 2.81 3.83C2.81 4.25 2.48 4.58 2.06 4.58L2.04 4.56L2.04 3.1Z" fill="#000000" fill-opacity="0" fill-rule="nonzero"/>
	<path id="path" d="M15.58 3.83L5.95 3.83M0 3.83L2.06 3.83" stroke="#FFFFFF" stroke-opacity="1.000000" stroke-width="1.500000"/>
</svg>
