<svg width="33.000000" height="31.000000" viewBox="0 0 33 31" fill="none" xmlns="http://www.w3.org/2000/svg" xmlns:xlink="http://www.w3.org/1999/xlink">
	<desc>
			Created with Pixso.
	</desc>
	<defs>
		<clipPath id="clip14_1138">
			<rect id="list-check-svgrepo-com (1)" width="33.000000" height="31.000000" fill="white" fill-opacity="0"/>
		</clipPath>
	</defs>
	<g clip-path="url(#clip14_1138)">
		<path id="path" d="M6.87 23.25C6.87 23.6 6.56 23.89 6.18 23.89C5.8 23.89 5.5 23.6 5.5 23.25C5.5 22.89 5.8 22.6 6.18 22.6C6.56 22.6 6.87 22.89 6.87 23.25ZM15.14 8.47L15.12 8.49C14.7 8.49 14.37 8.16 14.37 7.74C14.37 7.32 14.7 6.99 15.12 6.99L15.14 7.01L15.14 8.47ZM28.85 7.02L28.87 7C29.29 7 29.62 7.33 29.62 7.75C29.62 8.17 29.29 8.5 28.87 8.5L28.85 8.48L28.85 7.02ZM15.14 16.23L15.12 16.25C14.7 16.24 14.37 15.91 14.37 15.49C14.37 15.07 14.7 14.74 15.12 14.75L15.14 14.77L15.14 16.23ZM28.85 14.77L28.87 14.75C29.29 14.75 29.62 15.08 29.62 15.5C29.62 15.92 29.29 16.25 28.87 16.25L28.85 16.23L28.85 14.77ZM15.14 23.98L15.12 24C14.7 23.99 14.37 23.66 14.37 23.24C14.37 22.82 14.7 22.49 15.12 22.5L15.14 22.52L15.14 23.98ZM28.85 22.52L28.87 22.5C29.29 22.5 29.62 22.83 29.62 23.25C29.62 23.67 29.29 24 28.87 24L28.85 23.98L28.85 22.52ZM3.63 15.97L3.6 15.97C3.3 15.68 3.29 15.21 3.58 14.91C3.87 14.6 4.33 14.59 4.64 14.88L4.64 14.91L3.63 15.97ZM10.48 12.4L10.48 12.37C10.78 12.08 11.25 12.09 11.54 12.4C11.83 12.7 11.82 13.17 11.51 13.46L11.48 13.45L10.48 12.4ZM3.63 8.22L3.6 8.22C3.3 7.93 3.29 7.46 3.58 7.16C3.87 6.85 4.33 6.84 4.64 7.13L4.64 7.16L3.63 8.22ZM10.48 4.65L10.48 4.62C10.78 4.33 11.25 4.34 11.54 4.65C11.83 4.95 11.82 5.42 11.51 5.71L11.48 5.7L10.48 4.65Z" fill="#000000" fill-opacity="0" fill-rule="nonzero"/>
		<path id="path" d="M15.12 7.74L28.87 7.75M15.12 15.5L28.87 15.5M15.12 23.25L28.87 23.25M4.12 15.42L6.24 17.43L11 12.91M4.12 7.67L6.24 9.68L11 5.16M6.18 23.89C5.8 23.89 5.5 23.6 5.5 23.25C5.5 22.89 5.8 22.6 6.18 22.6C6.56 22.6 6.87 22.89 6.87 23.25C6.87 23.6 6.56 23.89 6.18 23.89Z" stroke="#FFFFFF" stroke-opacity="1.000000" stroke-width="1.500000" stroke-linejoin="round"/>
	</g>
</svg>
