<svg width="22.000000" height="23.000000" viewBox="0 0 22 23" fill="none" xmlns="http://www.w3.org/2000/svg" xmlns:xlink="http://www.w3.org/1999/xlink">
	<desc>
			Created with Pixso.
	</desc>
	<defs>
		<clipPath id="clip3_269">
			<rect id="office-desk-svgrepo-com" width="22.000000" height="23.000000" fill="white" fill-opacity="0"/>
		</clipPath>
	</defs>
	<g clip-path="url(#clip3_269)">
		<path id="path" d="M1.64 21.06L1.66 21.08C1.66 21.5 1.33 21.83 0.91 21.83C0.49 21.83 0.16 21.5 0.16 21.08L0.18 21.06L1.64 21.06ZM21.81 13.87L21.83 13.89C21.83 14.31 21.5 14.64 21.08 14.64C20.66 14.64 20.33 14.31 20.33 13.89L20.35 13.87L21.81 13.87Z" fill="#000000" fill-opacity="0" fill-rule="nonzero"/>
		<path id="path" d="M0.91 21.08L0.91 11.97C0.91 11.71 1.12 11.5 1.37 11.5L20.62 11.5C20.87 11.5 21.08 11.71 21.08 11.97L21.08 13.89" stroke="#FFFFFF" stroke-opacity="1.000000" stroke-width="1.500000" stroke-linejoin="round" stroke-linecap="round"/>
		<path id="path" d="M17.23 11.48L17.25 11.5C17.25 11.92 16.92 12.25 16.5 12.25C16.08 12.25 15.75 11.92 15.75 11.5L15.77 11.48L17.23 11.48ZM19.98 11L20 11.02C20 11.44 19.67 11.77 19.25 11.77C18.83 11.77 18.5 11.44 18.5 11.02L18.52 11L19.98 11Z" fill="#000000" fill-opacity="0" fill-rule="nonzero"/>
		<path id="path" d="M16.5 11.5L16.5 9.1C16.5 8.83 16.7 8.62 16.95 8.62L18.79 8.62C19.04 8.62 19.25 8.83 19.25 9.1L19.25 11.02" stroke="#FFFFFF" stroke-opacity="1.000000" stroke-width="1.500000" stroke-linejoin="round" stroke-linecap="round"/>
		<path id="path" d="M11.18 14.39L11.16 14.37C11.16 13.95 11.49 13.62 11.91 13.62C12.33 13.62 12.66 13.95 12.66 14.37L12.64 14.39L11.18 14.39ZM20.35 13.91L20.33 13.89C20.33 13.47 20.66 13.14 21.08 13.14C21.5 13.14 21.83 13.47 21.83 13.89L21.81 13.91L20.35 13.91Z" fill="#000000" fill-opacity="0" fill-rule="nonzero"/>
		<path id="path" d="M11.91 14.37L11.91 20.6C11.91 20.86 12.12 21.08 12.37 21.08L20.62 21.08C20.87 21.08 21.08 20.86 21.08 20.6L21.08 13.89" stroke="#FFFFFF" stroke-opacity="1.000000" stroke-width="1.500000" stroke-linejoin="round" stroke-linecap="round"/>
		<path id="path" d="M11.93 17.98L11.91 18C11.49 18 11.16 17.67 11.16 17.25C11.16 16.83 11.49 16.5 11.91 16.5L11.93 16.52L11.93 17.98ZM21.06 16.52L21.08 16.5C21.5 16.5 21.83 16.83 21.83 17.25C21.83 17.67 21.5 18 21.08 18L21.06 17.98L21.06 16.52Z" fill="#000000" fill-opacity="0" fill-rule="nonzero"/>
		<path id="path" d="M11.91 17.25L21.08 17.25" stroke="#FFFFFF" stroke-opacity="1.000000" stroke-width="1.500000" stroke-linejoin="round" stroke-linecap="round"/>
		<path id="path" d="M0.93 15.1L0.91 15.12C0.49 15.12 0.16 14.79 0.16 14.37C0.16 13.95 0.49 13.62 0.91 13.62L0.93 13.64L0.93 15.1ZM21.06 13.64L21.08 13.62C21.5 13.62 21.83 13.95 21.83 14.37C21.83 14.79 21.5 15.12 21.08 15.12L21.06 15.1L21.06 13.64Z" fill="#000000" fill-opacity="0" fill-rule="nonzero"/>
		<path id="path" d="M0.91 14.37L21.08 14.37" stroke="#FFFFFF" stroke-opacity="1.000000" stroke-width="1.500000" stroke-linejoin="round" stroke-linecap="round"/>
		<path id="path" d="M10.77 1.91L3.89 1.91C3.26 1.91 2.75 2.43 2.75 3.06L2.75 7.47C2.75 8.11 3.26 8.62 3.89 8.62L10.77 8.62C11.4 8.62 11.91 8.11 11.91 7.47L11.91 3.06C11.91 2.43 11.4 1.91 10.77 1.91Z" fill="#000000" fill-opacity="0" fill-rule="nonzero"/>
		<path id="path" d="M3.89 1.91C3.26 1.91 2.75 2.43 2.75 3.06L2.75 7.47C2.75 8.11 3.26 8.62 3.89 8.62L10.77 8.62C11.4 8.62 11.91 8.11 11.91 7.47L11.91 3.06C11.91 2.43 11.4 1.91 10.77 1.91L3.89 1.91Z" stroke="#FFFFFF" stroke-opacity="1.000000" stroke-width="1.500000" stroke-linejoin="round"/>
		<path id="path" d="M6.6 8.64L6.58 8.62C6.58 8.2 6.91 7.87 7.33 7.87C7.75 7.87 8.08 8.2 8.08 8.62L8.06 8.64L6.6 8.64ZM8.06 11.48L8.08 11.5C8.08 11.92 7.75 12.25 7.33 12.25C6.91 12.25 6.58 11.92 6.58 11.5L6.6 11.48L8.06 11.48Z" fill="#000000" fill-opacity="0" fill-rule="nonzero"/>
		<path id="path" d="M7.33 8.62L7.33 11.5" stroke="#FFFFFF" stroke-opacity="1.000000" stroke-width="1.500000" stroke-linejoin="round" stroke-linecap="round"/>
	</g>
</svg>
