<svg width="23.000000" height="24.000000" viewBox="0 0 23 24" fill="none" xmlns="http://www.w3.org/2000/svg" xmlns:xlink="http://www.w3.org/1999/xlink">
	<desc>
			Created with Pixso.
	</desc>
	<defs>
		<clipPath id="clip3_323">
			<rect id="psychologist-svgrepo-com" width="23.000000" height="24.000000" fill="white" fill-opacity="0"/>
		</clipPath>
	</defs>
	<g clip-path="url(#clip3_323)">
		<path id="path" d="M4.31 7.71L6.02 7.63C6.65 8.37 7.5 8.82 8.42 8.91C8.51 8.92 8.95 8.93 9.04 8.92C9.95 8.85 10.79 8.43 11.43 7.73L12.22 7.72L13.25 7.71C13.41 7.71 13.56 7.63 13.66 7.51C13.76 7.38 13.8 7.22 13.78 7.06L13.22 3.43C12.93 1.54 10.98 0 8.87 0C8.83 0 8.7 0 8.67 0C6.56 0 4.6 1.54 4.31 3.43L3.76 7.06C3.73 7.22 3.78 7.39 3.89 7.52C3.99 7.64 4.15 7.71 4.31 7.71ZM8.72 7.81C8.09 7.8 7.5 7.55 7.03 7.1C7.77 6.47 8.25 5.51 8.35 4.45C8.7 4.34 9.05 4.17 9.37 3.95C9.66 5.08 10.16 6.05 10.82 6.77C10.82 6.77 10.82 6.77 10.81 6.77C10.81 6.78 10.8 6.79 10.79 6.8C10.79 6.8 10.78 6.81 10.78 6.81C10.26 7.46 9.51 7.83 8.72 7.81ZM12.16 3.61L12.62 6.59L12.35 6.6C11.31 6.01 10.55 4.7 10.28 3.05C10.54 2.69 10.76 2.27 10.92 1.78C11.58 2.24 12.05 2.89 12.16 3.61ZM5.37 3.61C5.58 2.26 7.09 1.12 8.67 1.12C8.7 1.12 8.84 1.12 8.87 1.12C9.24 1.12 9.6 1.18 9.94 1.29C9.44 2.99 8.12 3.61 6.98 3.46C6.68 3.43 6.41 3.64 6.38 3.95C6.34 4.26 6.55 4.54 6.84 4.58C6.97 4.59 7.11 4.6 7.25 4.6C7.09 5.44 6.62 6.15 5.94 6.52L4.92 6.56L5.37 3.61ZM19.73 13.94L13.14 13.94C12.84 13.94 12.57 14.17 12.57 14.48L12.57 15.38C12.57 15.68 12.82 15.93 13.11 15.93C13.41 15.93 13.65 15.68 13.65 15.38L13.65 15.06L19.18 15.06L19.18 19.43L18.46 18.82C18.37 18.74 18.25 18.7 18.13 18.7L16.71 18.7L16.71 17.3C16.71 16.99 16.48 16.74 16.19 16.74L9.6 16.74C9.3 16.74 9.09 16.99 9.09 17.3L9.09 23.44C9.09 23.66 9.2 23.86 9.38 23.95C9.56 24.05 9.85 23.96 9.95 23.87L11.39 22.62L16.19 22.62C16.48 22.62 16.71 22.37 16.71 22.06L16.71 19.82L17.93 19.82L19.38 21.07C19.48 21.15 19.6 21.19 19.73 21.19C19.8 21.19 19.87 21.17 19.95 21.14C20.14 21.04 20.25 20.84 20.25 20.63L20.25 14.48C20.25 14.17 20.02 13.94 19.73 13.94ZM15.63 21.5L11.2 21.5C11.07 21.5 10.96 21.55 10.87 21.63L10.16 22.25L10.16 17.86L15.63 17.86L15.63 21.5ZM7.5 11.39C6.17 11.77 5.29 12.69 5.07 13.92L3.92 20.38L6.91 20.38C7.21 20.38 7.45 20.63 7.45 20.94C7.45 21.25 7.21 21.5 6.91 21.5L3.28 21.5C3.12 21.5 2.97 21.43 2.86 21.3C2.76 21.17 2.72 21 2.75 20.84L4.01 13.71C4.31 12.05 5.48 10.81 7.21 10.31C8.14 10.04 9.18 10.02 10.12 10.25C11.14 10.5 12 11.02 12.61 11.75C12.81 11.98 12.79 12.34 12.56 12.54C12.34 12.74 12 12.72 11.81 12.49C10.88 11.38 9.1 10.93 7.5 11.39Z" fill="#FFFFFF" fill-opacity="1.000000" fill-rule="nonzero"/>
	</g>
</svg>
