<svg width="22.000000" height="23.000000" viewBox="0 0 22 23" fill="none" xmlns="http://www.w3.org/2000/svg" xmlns:xlink="http://www.w3.org/1999/xlink">
	<desc>
			Created with Pixso.
	</desc>
	<defs>
		<clipPath id="clip3_263">
			<rect id="question-svgrepo-com" width="22.000000" height="23.000000" fill="white" fill-opacity="0"/>
		</clipPath>
	</defs>
	<g clip-path="url(#clip3_263)">
		<path id="path" d="M11 0C4.92 0 0 5.14 0 11.5C0 17.85 4.92 23 11 23C17.07 23 22 17.85 22 11.5C22 5.14 17.07 0 11 0ZM11 21.2C5.87 21.2 1.71 16.85 1.71 11.5C1.71 6.14 5.87 1.79 11 1.79C16.12 1.79 20.28 6.14 20.28 11.5C20.28 16.85 16.12 21.2 11 21.2Z" fill="#FFFFFF" fill-opacity="1.000000" fill-rule="nonzero"/>
		<rect id="rect" x="10.312500" y="15.812500" width="1.375000" height="1.437500" fill="#FFFFFF" fill-opacity="1.000000"/>
		<path id="path" d="M13.65 6.74C13.37 6.44 13.02 6.2 12.58 6.02C12.15 5.84 11.63 5.75 11.02 5.75C10.51 5.75 10.04 5.84 9.62 6.02C9.19 6.2 8.82 6.46 8.51 6.79C8.21 7.12 7.97 7.44 7.8 7.9C7.64 8.36 7.56 8.62 7.56 9.34L8.96 9.34C8.96 8.62 9.14 8.08 9.52 7.61C9.89 7.14 10.39 6.94 11.02 6.94C11.65 6.94 12.11 7.12 12.41 7.43C12.7 7.75 12.85 8.2 12.85 8.77C12.85 9.22 12.71 9.62 12.44 9.96C12.16 10.31 11.86 10.65 11.54 10.97C11.21 11.29 10.95 11.63 10.68 11.99C10.41 12.34 10.31 12.75 10.31 13.22L10.31 14.37L11.68 14.37L11.68 13.75C11.68 13.38 11.73 13.06 11.87 12.79C12 12.51 12.17 12.25 12.38 12.03C12.58 11.8 12.8 11.58 13.05 11.36C13.28 11.15 13.51 10.92 13.71 10.68C13.92 10.44 14.09 10.17 14.23 9.87C14.36 9.57 14.43 9.22 14.43 8.82C14.43 8.46 14.37 8.1 14.24 7.74C14.12 7.37 13.92 7.04 13.65 6.74Z" fill="#FFFFFF" fill-opacity="1.000000" fill-rule="nonzero"/>
	</g>
</svg>
