<svg width="22.000000" height="23.000000" viewBox="0 0 22 23" fill="none" xmlns="http://www.w3.org/2000/svg" xmlns:xlink="http://www.w3.org/1999/xlink">
	<desc>
			Created with Pixso.
	</desc>
	<defs>
		<clipPath id="clip3_315">
			<rect id="schedule-repeat-child-svgrepo-com" width="22.000000" height="23.000000" fill="white" fill-opacity="0"/>
		</clipPath>
	</defs>
	<g clip-path="url(#clip3_315)">
		<path id="path" d="M11.68 14.35L9.74 14.32C10 13.65 10.38 13.06 10.87 12.56C11.37 12.07 11.93 11.71 12.58 11.5C13.39 11.22 14.2 11.19 15.01 11.41C15.82 11.64 16.52 12.08 17.11 12.74C17.17 12.81 17.25 12.85 17.34 12.85C17.44 12.85 17.52 12.82 17.6 12.76L18.17 12.21C18.24 12.13 18.28 12.04 18.29 11.93C18.3 11.82 18.26 11.73 18.19 11.66C17.41 10.77 16.48 10.17 15.4 9.87C14.31 9.57 13.23 9.6 12.16 9.95C11.21 10.28 10.38 10.82 9.69 11.6C8.99 12.37 8.49 13.28 8.2 14.32L6.15 14.32C6.1 14.32 6.06 14.35 6.04 14.39C6.03 14.44 6.04 14.49 6.07 14.53L8.84 17.84C8.85 17.86 8.88 17.87 8.9 17.87C8.93 17.87 8.96 17.86 8.99 17.84L11.77 14.55C11.79 14.51 11.8 14.46 11.79 14.42C11.77 14.37 11.74 14.35 11.68 14.35ZM21.6 17.64L18.85 14.32C18.82 14.29 18.79 14.28 18.76 14.28C18.73 14.28 18.71 14.29 18.7 14.32L15.92 17.61C15.88 17.64 15.87 17.69 15.89 17.74C15.91 17.79 15.95 17.82 15.99 17.82L17.93 17.82C17.68 18.51 17.3 19.1 16.8 19.6C16.3 20.1 15.73 20.46 15.09 20.67C14.28 20.95 13.47 20.97 12.67 20.74C11.86 20.51 11.16 20.07 10.58 19.43C10.5 19.35 10.42 19.31 10.34 19.3C10.25 19.3 10.17 19.33 10.09 19.41L9.52 19.94C9.45 20.01 9.41 20.1 9.4 20.21C9.39 20.32 9.43 20.42 9.5 20.51C10.06 21.14 10.71 21.63 11.45 21.97C12.19 22.32 12.96 22.49 13.77 22.49C14.37 22.49 14.96 22.39 15.53 22.19C16.48 21.87 17.31 21.32 18 20.56C18.7 19.79 19.19 18.89 19.46 17.84L21.53 17.84C21.58 17.84 21.61 17.82 21.63 17.76C21.65 17.71 21.64 17.67 21.6 17.64ZM1.53 5.79L1.53 16.07C1.53 16.29 1.6 16.47 1.74 16.61C1.88 16.76 2.06 16.83 2.26 16.83L5.06 16.83C5.14 16.83 5.22 16.8 5.3 16.73C5.37 16.66 5.41 16.57 5.41 16.46L5.41 15.96C5.41 15.85 5.37 15.76 5.3 15.68C5.22 15.6 5.14 15.57 5.06 15.57L2.75 15.57L2.75 6.8L15.24 6.8L15.24 8.09C15.24 8.2 15.27 8.29 15.34 8.37C15.41 8.44 15.49 8.48 15.59 8.48L16.06 8.48C16.16 8.48 16.25 8.44 16.32 8.37C16.39 8.29 16.43 8.2 16.43 8.09L16.43 5.79L1.53 5.79ZM16.43 5.05L16.43 3.79C16.43 3.59 16.36 3.41 16.22 3.26C16.08 3.11 15.91 3.03 15.7 3.03L13.48 3.03L13.48 2.73C13.48 2.55 13.44 2.37 13.35 2.2C13.26 2.03 13.14 1.9 12.99 1.81C12.83 1.72 12.67 1.67 12.49 1.67C12.32 1.67 12.15 1.72 12 1.81C11.84 1.9 11.72 2.03 11.63 2.2C11.55 2.37 11.5 2.55 11.5 2.73L11.5 3.03L6.44 3.03L6.44 2.73C6.44 2.44 6.35 2.2 6.15 2C5.96 1.8 5.73 1.7 5.46 1.7C5.19 1.7 4.96 1.8 4.77 2C4.58 2.2 4.48 2.44 4.48 2.73L4.48 3.03L2.26 3.03C2.06 3.03 1.88 3.11 1.74 3.26C1.6 3.41 1.53 3.59 1.53 3.79L1.53 5.05L16.43 5.05Z" fill="#FFFFFF" fill-opacity="1.000000" fill-rule="nonzero"/>
	</g>
</svg>
