<svg width="33.000000" height="43.000000" viewBox="0 0 33 43" fill="none" xmlns="http://www.w3.org/2000/svg" xmlns:xlink="http://www.w3.org/1999/xlink">
	<desc>
			Created with Pixso.
	</desc>
	<defs>
		<clipPath id="clip14_1150">
			<rect id="security-secure-protection-7-svgrepo-com" width="33.000000" height="43.000000" fill="white" fill-opacity="0"/>
		</clipPath>
	</defs>
	<g clip-path="url(#clip14_1150)">
		<path id="path" d="M20.1 18.14L20.1 23.51C20.1 24.25 19.64 24.85 19.07 24.85L9.28 24.85C8.71 24.85 8.25 24.25 8.25 23.51L8.25 21.5L12.89 21.5L16.5 18.14L20.1 18.14Z" fill="#000000" fill-opacity="0" fill-rule="nonzero"/>
		<path id="path" d="M20.1 23.51C20.1 24.25 19.64 24.85 19.07 24.85L9.28 24.85C8.71 24.85 8.25 24.25 8.25 23.51L8.25 21.5L12.89 21.5L16.5 18.14L20.1 18.14L20.1 23.51Z" stroke="#FFFFFF" stroke-opacity="1.000000" stroke-width="1.500000" stroke-linejoin="round"/>
		<path id="polyline" d="M12.16 24.87L12.14 24.85C12.14 24.43 12.47 24.1 12.89 24.1C13.31 24.1 13.64 24.43 13.64 24.85L13.62 24.87L12.16 24.87ZM9.65 33.54L9.64 33.57C9.28 33.78 8.83 33.65 8.62 33.28C8.42 32.92 8.54 32.47 8.91 32.26L8.94 32.27L9.65 33.54Z" fill="#000000" fill-opacity="0" fill-rule="nonzero"/>
		<path id="polyline" d="M12.89 24.85L12.89 30.9L9.28 32.92" stroke="#FFFFFF" stroke-opacity="1.000000" stroke-width="1.500000" stroke-linejoin="round" stroke-linecap="round"/>
		<path id="path" d="M7.73 34.93L6.96 34.93C6.49 34.93 6.18 34.46 6.18 33.92L6.18 31.98C6.18 31.37 6.54 30.97 6.96 30.97L7.73 30.97C8.61 30.97 9.28 31.84 9.28 32.98C9.28 34.06 8.61 34.93 7.73 34.93Z" fill="#000000" fill-opacity="0" fill-rule="nonzero"/>
		<path id="path" d="M6.96 34.93C6.49 34.93 6.18 34.46 6.18 33.92L6.18 31.98C6.18 31.37 6.54 30.97 6.96 30.97L7.73 30.97C8.61 30.97 9.28 31.84 9.28 32.98C9.28 34.06 8.61 34.93 7.73 34.93L6.96 34.93Z" stroke="#FFFFFF" stroke-opacity="1.000000" stroke-width="1.500000" stroke-linejoin="round"/>
		<path id="path" d="M25.47 14.71L24.02 17.53C23.82 17.93 23.51 18.14 23.15 18.14L16.5 18.14L13.2 21.16C12.99 21.36 12.73 21.5 12.42 21.5L7.42 21.5C6.7 21.5 6.13 20.76 6.13 19.82L6.13 13.77C6.13 12.83 6.7 12.09 7.42 12.09L24.33 12.09C25.41 12.09 26.03 13.57 25.47 14.71Z" fill="#000000" fill-opacity="0" fill-rule="nonzero"/>
		<path id="path" d="M24.02 17.53C23.82 17.93 23.51 18.14 23.15 18.14L16.5 18.14L13.2 21.16C12.99 21.36 12.73 21.5 12.42 21.5L7.42 21.5C6.7 21.5 6.13 20.76 6.13 19.82L6.13 13.77C6.13 12.83 6.7 12.09 7.42 12.09L24.33 12.09C25.41 12.09 26.03 13.57 25.47 14.71L24.02 17.53Z" stroke="#FFFFFF" stroke-opacity="1.000000" stroke-width="1.500000" stroke-linejoin="round"/>
		<ellipse id="circle" cx="12.890625" cy="30.906250" rx="1.546875" ry="2.015625" fill="#FFFFFF" fill-opacity="1.000000"/>
		<path id="path" d="M21.39 22.5L20.1 22.5L20.1 20.49L21.39 20.49C21.81 20.49 22.17 20.96 22.17 21.5C22.17 22.03 21.81 22.5 21.39 22.5Z" fill="#000000" fill-opacity="0" fill-rule="nonzero"/>
		<path id="path" d="M20.1 22.5L20.1 20.49L21.39 20.49C21.81 20.49 22.17 20.96 22.17 21.5C22.17 22.03 21.81 22.5 21.39 22.5L20.1 22.5Z" stroke="#FFFFFF" stroke-opacity="1.000000" stroke-width="1.500000" stroke-linejoin="round"/>
	</g>
</svg>
