<svg width="35.000000" height="36.000000" viewBox="0 0 35 36" fill="none" xmlns="http://www.w3.org/2000/svg" xmlns:xlink="http://www.w3.org/1999/xlink">
	<desc>
			Created with Pixso.
	</desc>
	<defs>
		<clipPath id="clip14_1115">
			<rect id="security-secure-protection-svgrepo-com" width="35.000000" height="36.000000" fill="white" fill-opacity="0"/>
		</clipPath>
	</defs>
	<g clip-path="url(#clip14_1115)">
		<path id="path" d="M13.67 21.37L9.29 21.37L9.29 20.81C9.29 19.57 10.28 18.56 11.48 18.56C12.68 18.56 13.67 19.57 13.67 20.81L13.67 21.37Z" fill="#000000" fill-opacity="0" fill-rule="nonzero"/>
		<path id="path" d="M9.29 21.37L9.29 20.81C9.29 19.57 10.28 18.56 11.48 18.56C12.68 18.56 13.67 19.57 13.67 20.81L13.67 21.37L9.29 21.37Z" stroke="#FFFFFF" stroke-opacity="1.000000" stroke-width="1.500000" stroke-linejoin="round"/>
		<ellipse id="circle" cx="11.484375" cy="15.750000" rx="1.093750" ry="1.125000" fill="#000000" fill-opacity="0"/>
		<ellipse id="circle" cx="11.484375" cy="15.750000" rx="1.093750" ry="1.125000" stroke="#FFFFFF" stroke-opacity="1.000000" stroke-width="1.500000" stroke-linejoin="round"/>
		<path id="line" d="M17.51 15.91L17.5 15.93C17.08 15.93 16.75 15.6 16.75 15.18C16.75 14.76 17.08 14.43 17.5 14.43L17.51 14.45L17.51 15.91ZM25.13 14.45L25.15 14.43C25.57 14.43 25.9 14.76 25.9 15.18C25.9 15.6 25.57 15.93 25.15 15.93L25.13 15.91L25.13 14.45Z" fill="#000000" fill-opacity="0" fill-rule="nonzero"/>
		<path id="line" d="M17.5 15.18L25.15 15.18" stroke="#FFFFFF" stroke-opacity="1.000000" stroke-width="1.500000" stroke-linejoin="round" stroke-linecap="round"/>
		<path id="line" d="M17.51 18.73L17.5 18.75C17.08 18.75 16.75 18.42 16.75 18C16.75 17.58 17.08 17.25 17.5 17.25L17.51 17.27L17.51 18.73ZM25.13 17.27L25.15 17.25C25.57 17.25 25.9 17.58 25.9 18C25.9 18.42 25.57 18.75 25.15 18.75L25.13 18.73L25.13 17.27Z" fill="#000000" fill-opacity="0" fill-rule="nonzero"/>
		<path id="line" d="M17.5 18L25.15 18" stroke="#FFFFFF" stroke-opacity="1.000000" stroke-width="1.500000" stroke-linejoin="round" stroke-linecap="round"/>
		<path id="line" d="M17.51 21.54L17.5 21.56C17.08 21.56 16.75 21.23 16.75 20.81C16.75 20.39 17.08 20.06 17.5 20.06L17.51 20.08L17.51 21.54ZM25.13 20.08L25.15 20.06C25.57 20.06 25.9 20.39 25.9 20.81C25.9 21.23 25.57 21.56 25.15 21.56L25.13 21.54L25.13 20.08Z" fill="#000000" fill-opacity="0" fill-rule="nonzero"/>
		<path id="line" d="M17.5 20.81L25.15 20.81" stroke="#FFFFFF" stroke-opacity="1.000000" stroke-width="1.500000" stroke-linejoin="round" stroke-linecap="round"/>
		<path id="path" d="M28.43 21.37C28.43 22.95 27.17 24.18 25.7 24.18L9.29 24.18C7.76 24.18 6.56 22.89 6.56 21.37L6.56 14.62C6.56 13.05 7.82 11.81 9.29 11.81L25.7 11.81C27.23 11.81 28.43 13.1 28.43 14.62L28.43 21.37Z" fill="#000000" fill-opacity="0" fill-rule="nonzero"/>
		<path id="path" d="M25.7 24.18L9.29 24.18C7.76 24.18 6.56 22.89 6.56 21.37L6.56 14.62C6.56 13.05 7.82 11.81 9.29 11.81L25.7 11.81C27.23 11.81 28.43 13.1 28.43 14.62L28.43 21.37C28.43 22.95 27.17 24.18 25.7 24.18Z" stroke="#FFFFFF" stroke-opacity="1.000000" stroke-width="1.500000" stroke-linejoin="round"/>
		<path id="path" d="M19.68 11.81L15.31 11.81L15.31 11.25C15.31 10.01 16.29 9 17.5 9C18.7 9 19.68 10.01 19.68 11.25L19.68 11.81Z" fill="#000000" fill-opacity="0" fill-rule="nonzero"/>
		<path id="path" d="M15.31 11.81L15.31 11.25C15.31 10.01 16.29 9 17.5 9C18.7 9 19.68 10.01 19.68 11.25L19.68 11.81L15.31 11.81Z" stroke="#FFFFFF" stroke-opacity="1.000000" stroke-width="1.500000" stroke-linejoin="round"/>
		<path id="polyline" d="M9.82 6.01L9.84 6C10.26 6 10.59 6.32 10.59 6.75C10.59 7.17 10.26 7.5 9.84 7.5L9.82 7.48L9.82 6.01ZM7.29 10.1L7.31 10.12C7.31 10.54 6.98 10.87 6.56 10.87C6.14 10.87 5.81 10.54 5.81 10.12L5.83 10.1L7.29 10.1Z" fill="#000000" fill-opacity="0" fill-rule="nonzero"/>
		<path id="polyline" d="M9.84 6.75L6.56 6.75L6.56 10.12" stroke="#FFFFFF" stroke-opacity="1.000000" stroke-width="1.500000" stroke-linejoin="round" stroke-linecap="round"/>
		<path id="polyline" d="M25.17 7.48L25.15 7.5C24.73 7.5 24.4 7.17 24.4 6.75C24.4 6.32 24.73 6 25.15 6L25.17 6.01L25.17 7.48ZM29.16 10.1L29.18 10.12C29.18 10.54 28.85 10.87 28.43 10.87C28.01 10.87 27.68 10.54 27.68 10.12L27.7 10.1L29.16 10.1Z" fill="#000000" fill-opacity="0" fill-rule="nonzero"/>
		<path id="polyline" d="M25.15 6.75L28.43 6.75L28.43 10.12" stroke="#FFFFFF" stroke-opacity="1.000000" stroke-width="1.500000" stroke-linejoin="round" stroke-linecap="round"/>
		<path id="polyline" d="M27.7 25.89L27.68 25.87C27.68 25.45 28.01 25.12 28.43 25.12C28.85 25.12 29.18 25.45 29.18 25.87L29.16 25.89L27.7 25.89ZM25.17 29.98L25.15 30C24.73 30 24.4 29.67 24.4 29.25C24.4 28.83 24.73 28.5 25.15 28.5L25.17 28.52L25.17 29.98Z" fill="#000000" fill-opacity="0" fill-rule="nonzero"/>
		<path id="polyline" d="M28.43 25.87L28.43 29.25L25.15 29.25" stroke="#FFFFFF" stroke-opacity="1.000000" stroke-width="1.500000" stroke-linejoin="round" stroke-linecap="round"/>
		<path id="polyline" d="M5.83 25.89L5.81 25.87C5.81 25.45 6.14 25.12 6.56 25.12C6.98 25.12 7.31 25.45 7.31 25.87L7.29 25.89L5.83 25.89ZM9.82 28.52L9.84 28.5C10.26 28.5 10.59 28.83 10.59 29.25C10.59 29.67 10.26 30 9.84 30L9.82 29.98L9.82 28.52Z" fill="#000000" fill-opacity="0" fill-rule="nonzero"/>
		<path id="polyline" d="M6.56 25.87L6.56 29.25L9.84 29.25" stroke="#FFFFFF" stroke-opacity="1.000000" stroke-width="1.500000" stroke-linejoin="round" stroke-linecap="round"/>
	</g>
</svg>
