<svg width="33.000000" height="35.000000" viewBox="0 0 33 35" fill="none" xmlns="http://www.w3.org/2000/svg" xmlns:xlink="http://www.w3.org/1999/xlink">
	<desc>
			Created with Pixso.
	</desc>
	<defs>
		<clipPath id="clip14_1170">
			<rect id="security-secure-protection-14-svgrepo-com" width="33.000000" height="35.000000" fill="white" fill-opacity="0"/>
		</clipPath>
	</defs>
	<g clip-path="url(#clip14_1170)">
		<path id="path" d="M19.57 24.42L19.59 24.4C20.01 24.4 20.34 24.73 20.34 25.15C20.34 25.57 20.01 25.9 19.59 25.9L19.57 25.88L19.57 24.42ZM27.54 19.66L27.56 19.68C27.56 20.1 27.23 20.43 26.81 20.43C26.39 20.43 26.06 20.1 26.06 19.68L26.08 19.66L27.54 19.66Z" fill="#000000" fill-opacity="0" fill-rule="nonzero"/>
		<path id="path" d="M19.59 25.15L7.73 25.15C6.85 25.15 6.18 24.44 6.18 23.51L6.18 11.48C6.18 10.55 6.85 9.84 7.73 9.84L25.26 9.84C26.14 9.84 26.81 10.55 26.81 11.48L26.81 19.68" stroke="#FFFFFF" stroke-opacity="1.000000" stroke-width="1.500000" stroke-linejoin="round" stroke-linecap="round"/>
		<path id="line" d="M26.79 14.58L26.81 14.56C27.23 14.56 27.56 14.89 27.56 15.31C27.56 15.73 27.23 16.06 26.81 16.06L26.79 16.04L26.79 14.58ZM8.26 16.04L8.25 16.06C7.83 16.06 7.5 15.73 7.5 15.31C7.5 14.89 7.83 14.56 8.25 14.56L8.26 14.58L8.26 16.04Z" fill="#000000" fill-opacity="0" fill-rule="nonzero"/>
		<path id="line" d="M26.81 15.31L8.25 15.31" stroke="#FFFFFF" stroke-opacity="1.000000" stroke-width="1.500000" stroke-linejoin="round" stroke-linecap="round"/>
		<ellipse id="circle" cx="9.281250" cy="12.578125" rx="0.515625" ry="0.546875" fill="#000000" fill-opacity="0"/>
		<ellipse id="circle" cx="9.281250" cy="12.578125" rx="0.515625" ry="0.546875" stroke="#FFFFFF" stroke-opacity="1.000000" stroke-width="1.500000" stroke-linejoin="round"/>
		<ellipse id="circle" cx="12.890625" cy="12.578125" rx="0.515625" ry="0.546875" fill="#000000" fill-opacity="0"/>
		<ellipse id="circle" cx="12.890625" cy="12.578125" rx="0.515625" ry="0.546875" stroke="#FFFFFF" stroke-opacity="1.000000" stroke-width="1.500000" stroke-linejoin="round"/>
		<ellipse id="circle" cx="16.500000" cy="12.578125" rx="0.515625" ry="0.546875" fill="#000000" fill-opacity="0"/>
		<ellipse id="circle" cx="16.500000" cy="12.578125" rx="0.515625" ry="0.546875" stroke="#FFFFFF" stroke-opacity="1.000000" stroke-width="1.500000" stroke-linejoin="round"/>
		<ellipse id="circle" cx="20.109375" cy="12.578125" rx="0.515625" ry="0.546875" fill="#000000" fill-opacity="0"/>
		<ellipse id="circle" cx="20.109375" cy="12.578125" rx="0.515625" ry="0.546875" stroke="#FFFFFF" stroke-opacity="1.000000" stroke-width="1.500000" stroke-linejoin="round"/>
		<ellipse id="circle" cx="23.718750" cy="12.578125" rx="0.515625" ry="0.546875" fill="#000000" fill-opacity="0"/>
		<ellipse id="circle" cx="23.718750" cy="12.578125" rx="0.515625" ry="0.546875" stroke="#FFFFFF" stroke-opacity="1.000000" stroke-width="1.500000" stroke-linejoin="round"/>
		<rect id="rect" x="21.656250" y="24.062500" width="5.156250" height="4.375000" fill="#000000" fill-opacity="0"/>
		<rect id="rect" x="21.656250" y="24.062500" width="5.156250" height="4.375000" stroke="#FFFFFF" stroke-opacity="1.000000" stroke-width="1.500000" stroke-linejoin="round"/>
		<path id="path" d="M25.78 24.06L22.68 24.06L22.68 22.96C22.68 22.03 23.35 21.32 24.23 21.32C25.11 21.32 25.78 22.03 25.78 22.96L25.78 24.06Z" fill="#000000" fill-opacity="0" fill-rule="nonzero"/>
		<path id="path" d="M22.68 24.06L22.68 22.96C22.68 22.03 23.35 21.32 24.23 21.32C25.11 21.32 25.78 22.03 25.78 22.96L25.78 24.06L22.68 24.06Z" stroke="#FFFFFF" stroke-opacity="1.000000" stroke-width="1.500000" stroke-linejoin="round"/>
		<path id="line" d="M0nan 0nanL0nan 0nanC0nan 0nan 0nan 0nan 0nan 0nanC0nan 0nan 0nan 0nan 0nan 0nanL0nan 0nanZM0nan 0nanL0nan 0nanC0nan 0nan 0nan 0nan 0nan 0nanC0nan 0nan 0nan 0nan 0nan 0nanL0nan 0nanZ" fill="#000000" fill-opacity="0" fill-rule="nonzero"/>
		<path id="line" d="M0 0L0nan 0" stroke="#00B1E4" stroke-opacity="1.000000" stroke-width="1.500000" stroke-linejoin="round" stroke-linecap="round"/>
	</g>
</svg>
