<svg width="38.000000" height="35.000000" viewBox="0 0 38 35" fill="none" xmlns="http://www.w3.org/2000/svg" xmlns:xlink="http://www.w3.org/1999/xlink">
	<desc>
			Created with Pixso.
	</desc>
	<defs>
		<clipPath id="clip14_1175">
			<rect id="security-secure-protection-27-svgrepo-com" width="38.000000" height="35.000000" fill="white" fill-opacity="0"/>
		</clipPath>
	</defs>
	<g clip-path="url(#clip14_1175)">
		<path id="path" d="M24.1 11.26C24.1 11.64 24.04 12.08 23.92 12.41C23.33 14.43 21.37 15.91 19 15.91C16.62 15.91 14.66 14.43 14.07 12.41C13.95 12.03 13.89 11.64 13.89 11.26C13.89 8.69 16.14 6.56 19 6.56C21.84 6.56 24.1 8.64 24.1 11.26Z" fill="#000000" fill-opacity="0" fill-rule="nonzero"/>
		<path id="path" d="M23.92 12.41C23.33 14.43 21.37 15.91 19 15.91C16.62 15.91 14.66 14.43 14.07 12.41C13.95 12.03 13.89 11.64 13.89 11.26C13.89 8.69 16.14 6.56 19 6.56C21.84 6.56 24.1 8.64 24.1 11.26C24.1 11.64 24.04 12.08 23.92 12.41Z" stroke="#FFFFFF" stroke-opacity="1.000000" stroke-width="1.500000"/>
		<path id="path" d="M23.92 12.41C23.33 14.43 21.37 15.91 19 15.91C16.62 15.91 14.66 14.43 14.07 12.41C14.6 10.39 16.62 8.91 19 8.91C21.37 8.91 23.33 10.39 23.92 12.41Z" fill="#000000" fill-opacity="0" fill-rule="nonzero"/>
		<path id="path" d="M19 15.91C16.62 15.91 14.66 14.43 14.07 12.41C14.6 10.39 16.62 8.91 19 8.91C21.37 8.91 23.33 10.39 23.92 12.41C23.33 14.43 21.37 15.91 19 15.91Z" stroke="#FFFFFF" stroke-opacity="1.000000" stroke-width="1.500000"/>
		<path id="path" d="M25.55 29.16L25.53 29.18C25.11 29.18 24.78 28.85 24.78 28.43C24.78 28.01 25.11 27.68 25.53 27.68L25.55 27.7L25.55 29.16ZM12.44 27.7L12.46 27.68C12.88 27.68 13.21 28.01 13.21 28.43C13.21 28.85 12.88 29.18 12.46 29.18L12.44 29.16L12.44 27.7Z" fill="#000000" fill-opacity="0" fill-rule="nonzero"/>
		<path id="path" d="M25.53 28.43L28.32 28.43L28.32 27.67C28.32 22.91 24.16 19.08 19 19.08C13.83 19.08 9.67 22.91 9.67 27.67L9.67 28.43L12.46 28.43" stroke="#FFFFFF" stroke-opacity="1.000000" stroke-width="1.500000" stroke-linejoin="round" stroke-linecap="round"/>
		<rect id="rect" x="16.031250" y="24.062500" width="5.937500" height="4.375000" fill="#000000" fill-opacity="0"/>
		<rect id="rect" x="16.031250" y="24.062500" width="5.937500" height="4.375000" stroke="#FFFFFF" stroke-opacity="1.000000" stroke-width="1.500000" stroke-linejoin="round"/>
		<path id="path" d="M20.78 24.06L17.21 24.06L17.21 22.96C17.21 22.03 17.99 21.32 19 21.32C20 21.32 20.78 22.03 20.78 22.96L20.78 24.06Z" fill="#000000" fill-opacity="0" fill-rule="nonzero"/>
		<path id="path" d="M17.21 24.06L17.21 22.96C17.21 22.03 17.99 21.32 19 21.32C20 21.32 20.78 22.03 20.78 22.96L20.78 24.06L17.21 24.06Z" stroke="#FFFFFF" stroke-opacity="1.000000" stroke-width="1.500000" stroke-linejoin="round"/>
		<path id="line" d="M0nan 0nanL0nan 0nanC0nan 0nan 0nan 0nan 0nan 0nanC0nan 0nan 0nan 0nan 0nan 0nanL0nan 0nanZM0nan 0nanL0nan 0nanC0nan 0nan 0nan 0nan 0nan 0nanC0nan 0nan 0nan 0nan 0nan 0nanL0nan 0nanZ" fill="#000000" fill-opacity="0" fill-rule="nonzero"/>
		<path id="line" d="M0 0L0nan 0" stroke="#FFFFFF" stroke-opacity="1.000000" stroke-width="1.500000" stroke-linejoin="round" stroke-linecap="round"/>
	</g>
</svg>
