<svg width="35.000000" height="35.000000" viewBox="0 0 35 35" fill="none" xmlns="http://www.w3.org/2000/svg" xmlns:xlink="http://www.w3.org/1999/xlink">
	<desc>
			Created with Pixso.
	</desc>
	<defs>
		<clipPath id="clip14_1159">
			<rect id="security-secure-protection-8-svgrepo-com" width="35.000000" height="35.000000" fill="white" fill-opacity="0"/>
		</clipPath>
	</defs>
	<g clip-path="url(#clip14_1159)">
		<path id="line" d="M28.41 18.41L28.43 18.39C28.85 18.39 29.18 18.72 29.18 19.14C29.18 19.56 28.85 19.89 28.43 19.89L28.41 19.87L28.41 18.41ZM9.31 19.87L9.29 19.89C8.87 19.89 8.54 19.56 8.54 19.14C8.54 18.72 8.87 18.39 9.29 18.39L9.31 18.41L9.31 19.87Z" fill="#000000" fill-opacity="0" fill-rule="nonzero"/>
		<path id="line" d="M28.43 19.14L9.29 19.14" stroke="#FFFFFF" stroke-opacity="1.000000" stroke-width="1.500000" stroke-linejoin="round" stroke-linecap="round"/>
		<path id="polygon" d="M20.78 28.43L14.21 28.43L15.31 21.87L19.68 21.87L20.78 28.43Z" fill="#000000" fill-opacity="0" fill-rule="nonzero"/>
		<path id="polygon" d="M14.21 28.43L15.31 21.87L19.68 21.87L20.78 28.43L14.21 28.43Z" stroke="#FFFFFF" stroke-opacity="1.000000" stroke-width="1.500000" stroke-linejoin="round"/>
		<path id="path" d="M19.66 21.14L19.68 21.12C20.1 21.12 20.43 21.45 20.43 21.87C20.43 22.29 20.1 22.62 19.68 22.62L19.66 22.6L19.66 21.14ZM22.22 22.6L22.2 22.62C21.78 22.62 21.45 22.29 21.45 21.87C21.45 21.45 21.78 21.12 22.2 21.12L22.22 21.14L22.22 22.6Z" fill="#000000" fill-opacity="0" fill-rule="nonzero"/>
		<path id="path" d="M19.68 21.87L8.2 21.87C7.32 21.87 6.56 21.16 6.56 20.23L6.56 8.2C6.56 7.32 7.32 6.56 8.2 6.56L26.79 6.56C27.72 6.56 28.43 7.32 28.43 8.2L28.43 20.23C28.43 21.16 27.72 21.87 26.79 21.87L22.2 21.87" stroke="#FFFFFF" stroke-opacity="1.000000" stroke-width="1.500000" stroke-linejoin="round" stroke-linecap="round"/>
		<path id="line" d="M9.86 29.16L9.84 29.18C9.42 29.18 9.09 28.85 9.09 28.43C9.09 28.01 9.42 27.68 9.84 27.68L9.86 27.7L9.86 29.16ZM25.13 27.7L25.15 27.68C25.57 27.68 25.9 28.01 25.9 28.43C25.9 28.85 25.57 29.18 25.15 29.18L25.13 29.16L25.13 27.7Z" fill="#000000" fill-opacity="0" fill-rule="nonzero"/>
		<path id="line" d="M9.84 28.43L25.15 28.43" stroke="#FFFFFF" stroke-opacity="1.000000" stroke-width="1.500000" stroke-linejoin="round" stroke-linecap="round"/>
		<rect id="rect" x="14.765625" y="12.031250" width="5.468750" height="4.375000" fill="#000000" fill-opacity="0"/>
		<rect id="rect" x="14.765625" y="12.031250" width="5.468750" height="4.375000" stroke="#FFFFFF" stroke-opacity="1.000000" stroke-width="1.500000" stroke-linejoin="round"/>
		<path id="path" d="M19.14 12.03L15.85 12.03L15.85 10.93C15.85 10 16.57 9.29 17.5 9.29C18.42 9.29 19.14 10 19.14 10.93L19.14 12.03Z" fill="#000000" fill-opacity="0" fill-rule="nonzero"/>
		<path id="path" d="M15.85 12.03L15.85 10.93C15.85 10 16.57 9.29 17.5 9.29C18.42 9.29 19.14 10 19.14 10.93L19.14 12.03L15.85 12.03Z" stroke="#FFFFFF" stroke-opacity="1.000000" stroke-width="1.500000" stroke-linejoin="round"/>
		<path id="line" d="M0nan 0nanL0nan 0nanC0nan 0nan 0nan 0nan 0nan 0nanC0nan 0nan 0nan 0nan 0nan 0nanL0nan 0nanZM0nan 0nanL0nan 0nanC0nan 0nan 0nan 0nan 0nan 0nanC0nan 0nan 0nan 0nan 0nan 0nanL0nan 0nanZ" fill="#000000" fill-opacity="0" fill-rule="nonzero"/>
		<path id="line" d="M0 0L0nan 0" stroke="#FFFFFF" stroke-opacity="1.000000" stroke-width="1.500000" stroke-linejoin="round" stroke-linecap="round"/>
	</g>
</svg>
