<svg width="22.000000" height="23.000000" viewBox="0 0 22 23" fill="none" xmlns="http://www.w3.org/2000/svg" xmlns:xlink="http://www.w3.org/1999/xlink">
	<desc>
			Created with Pixso.
	</desc>
	<defs>
		<clipPath id="clip3_317">
			<rect id="teacher-svgrepo-com" width="22.000000" height="23.000000" fill="white" fill-opacity="0"/>
		</clipPath>
	</defs>
	<g clip-path="url(#clip3_317)">
		<path id="path" d="M11 9.72C13.56 9.72 15.65 7.54 15.65 4.86C15.65 2.18 13.56 0 11 0C8.43 0 6.34 2.18 6.34 4.86C6.34 7.54 8.43 9.72 11 9.72ZM11 1.16C12.95 1.16 14.54 2.82 14.54 4.86C14.54 6.9 12.95 8.56 11 8.56C9.04 8.56 7.45 6.9 7.45 4.86C7.45 2.82 9.04 1.16 11 1.16Z" fill="#FFFFFF" fill-opacity="1.000000" fill-rule="nonzero"/>
		<path id="path" d="M18.77 20.84L17.24 14.23C17.06 13.44 16.39 12.89 15.62 12.89C14.65 12.89 7.24 12.89 6.37 12.89C5.6 12.89 4.93 13.44 4.75 14.23L3.22 20.84C2.97 21.94 3.76 23 4.84 23L17.15 23C18.22 23 19.02 21.94 18.77 20.84ZM4.84 21.83C4.48 21.83 4.22 21.48 4.3 21.12L5.83 14.5C5.89 14.24 6.11 14.05 6.37 14.05L8.9 14.05L8.2 19.24C8.18 19.39 8.22 19.54 8.31 19.67L9.88 21.83L4.84 21.83ZM9.33 19.16L10.02 14.05L11.97 14.05L12.66 19.16L11 21.45L9.33 19.16ZM17.15 21.83L12.11 21.83L13.68 19.67C13.77 19.54 13.81 19.39 13.79 19.24L13.09 14.05L15.62 14.05C15.88 14.05 16.1 14.24 16.16 14.5L17.69 21.12C17.77 21.48 17.51 21.83 17.15 21.83Z" fill="#FFFFFF" fill-opacity="1.000000" fill-rule="nonzero"/>
	</g>
</svg>
